o PULSO_RAGDOLL_A_DEBRIS_CHUNK_07
v -0.0872442424 -0.145067155 -0.0894306898
v -0.0881738588 -0.162541732 -0.0743039623
v -0.10359282 -0.144778341 -0.0729229227
v -0.0920157135 -0.17475298 0.0677615702
v -0.0926576853 -0.160238281 0.0833287463
v -0.108186051 -0.157797664 0.0668478608
v -0.0782595351 0.176338434 -0.0751002282
v -0.0962717608 0.177775681 -0.0572463498
v -0.0795057565 0.192924753 -0.0580210686
v -0.0979177281 0.18194215 0.0775795355
v -0.0960353985 0.197323784 0.0614417493
v -0.111638859 0.182589963 0.060156785
v 0.0816464871 -0.164321542 -0.0966689885
v 0.0981253162 -0.166637629 -0.0813258737
v 0.0820377767 -0.180794194 -0.0807314292
v 0.0883122683 -0.170330107 0.0895989612
v 0.0873206779 -0.185859382 0.0732231885
v 0.10369271 -0.170798957 0.0741437599
v 0.0867557973 0.167599216 -0.095161505
v 0.0878143981 0.183479801 -0.0791717023
v 0.103427052 0.166682169 -0.08122354
v 0.0969673321 0.16686371 0.096771948
v 0.111972719 0.16574432 0.082444258
v 0.0963453203 0.182940319 0.0810169578
vn -0.394960433 -0.279000431 -0.875308573
vn -0.408088565 -0.824152708 -0.392728895
vn -0.876496732 -0.284448087 -0.3883847
vn -0.401139319 -0.869770706 0.287378132
vn -0.40434432 -0.353054494 0.843716919
vn -0.906203985 -0.326823533 0.268292367
vn -0.360150307 0.366524816 -0.857876062
vn -0.846357226 0.366912007 -0.386076272
vn -0.302633137 0.882156551 -0.360850364
vn -0.399305105 0.35592714 0.844909012
vn -0.333540022 0.898519099 0.285332233
vn -0.895698249 0.367498904 0.250338167
vn 0.260382921 -0.331962198 -0.906643152
vn 0.840855777 -0.373445362 -0.391790867
vn 0.26403144 -0.882332802 -0.389584541
vn 0.300430655 -0.372759879 0.87794733
vn 0.284122378 -0.909424424 0.303680182
vn 0.866120577 -0.384056538 0.319899678
vn 0.282853842 0.34516266 -0.894905746
vn 0.34800294 0.863339543 -0.36542961
vn 0.862349808 0.318781346 -0.393358916
vn 0.325210452 0.329163611 0.886504054
vn 0.89034903 0.309746534 0.333669931
vn 0.370527029 0.866432488 0.334670693
f 1//1 2//2 3//3
f 4//4 5//5 6//6
f 7//7 8//8 9//9
f 10//10 11//11 12//12
f 13//13 14//14 15//15
f 16//16 17//17 18//18
f 19//19 20//20 21//21
f 22//22 23//23 24//24
f 7//7 1//1 3//3
f 7//7 3//3 8//8
f 2//2 4//4 6//6
f 2//2 6//6 3//3
f 5//5 10//10 12//12
f 5//5 12//12 6//6
f 11//11 9//9 8//8
f 11//11 8//8 12//12
f 19//19 7//7 9//9
f 19//19 9//9 20//20
f 10//10 22//22 24//24
f 10//10 24//24 11//11
f 23//23 21//21 20//20
f 23//23 20//20 24//24
f 13//13 19//19 21//21
f 13//13 21//21 14//14
f 22//22 16//16 18//18
f 22//22 18//18 23//23
f 17//17 15//15 14//14
f 17//17 14//14 18//18
f 1//1 13//13 15//15
f 1//1 15//15 2//2
f 16//16 5//5 4//4
f 16//16 4//4 17//17
f 7//7 19//19 13//13
f 7//7 13//13 1//1
f 3//3 6//6 12//12
f 3//3 12//12 8//8
f 15//15 17//17 4//4
f 15//15 4//4 2//2
f 22//22 10//10 5//5
f 22//22 5//5 16//16
f 9//9 11//11 24//24
f 9//9 24//24 20//20
f 21//21 23//23 18//18
f 21//21 18//18 14//14
