o PULSO_RAGDOLL_A_DEBRIS_BEAM
v -0.824108899 -0.0932051688 -0.094847776
v -0.837352812 -0.108088642 -0.0794017762
v -0.845453024 -0.0949242339 -0.0799389333
v -0.872438014 -0.105940342 0.0826479793
v -0.86513871 -0.0906561986 0.097423628
v -0.880405843 -0.092908673 0.082818456
v -0.723879278 0.0908537433 -0.0995491594
v -0.742946386 0.0925120935 -0.0848661289
v -0.720451474 0.105715789 -0.0849607885
v -0.762487769 0.0893268362 0.0944698676
v -0.752892017 0.104422078 0.0791956633
v -0.77574265 0.0913788155 0.0796615854
v 0.741459906 -0.082669057 -0.101426192
v 0.767038643 -0.0839797109 -0.0881134495
v 0.741456985 -0.0975102633 -0.087513648
v 0.847642899 -0.0801664144 0.0853637829
v 0.842311859 -0.0953612253 0.0701114684
v 0.855840683 -0.0810399204 0.0723915696
v 0.848847389 0.0824104398 -0.0900621787
v 0.853100657 0.0971292704 -0.0740325153
v 0.861738801 0.0842697993 -0.0758932233
v 0.784809172 0.079806529 0.0886552185
v 0.806959867 0.0807990953 0.0747874305
v 0.785411775 0.0950732604 0.0739308149
vn -0.294986486 -0.220426068 -0.929728687
vn -0.412623942 -0.803981304 -0.428200334
vn -0.8635934 -0.0347436629 -0.502990246
vn -0.483694971 -0.814355373 0.320724815
vn -0.379700959 -0.178917885 0.907642841
vn -0.963768005 -0.0254904199 0.265521377
vn -0.219724849 0.417942405 -0.881501675
vn -0.65259099 0.613581896 -0.444569826
vn -0.2031091 0.91043067 -0.360364854
vn -0.274896592 0.44768092 0.850889921
vn -0.226667777 0.922130585 0.313523144
vn -0.71543026 0.659047008 0.231984019
vn 0.183270082 -0.392391711 -0.901354909
vn 0.686368823 -0.504628539 -0.523686826
vn 0.186247453 -0.889483571 -0.417290032
vn 0.41009295 -0.272889197 0.87026155
vn 0.344662845 -0.916615486 0.202542901
vn 0.887958646 -0.386243314 0.24969092
vn 0.346452951 0.226151958 -0.910398662
vn 0.412379116 0.881582618 -0.22968553
vn 0.894307435 0.263462424 -0.361665338
vn 0.24045378 0.39073354 0.888543308
vn 0.809374332 0.393332213 0.436122745
vn 0.239762485 0.875724733 0.419070661
f 1//1 2//2 3//3
f 4//4 5//5 6//6
f 7//7 8//8 9//9
f 10//10 11//11 12//12
f 13//13 14//14 15//15
f 16//16 17//17 18//18
f 19//19 20//20 21//21
f 22//22 23//23 24//24
f 7//7 1//1 3//3
f 7//7 3//3 8//8
f 2//2 4//4 6//6
f 2//2 6//6 3//3
f 5//5 10//10 12//12
f 5//5 12//12 6//6
f 11//11 9//9 8//8
f 11//11 8//8 12//12
f 19//19 7//7 9//9
f 19//19 9//9 20//20
f 10//10 22//22 24//24
f 10//10 24//24 11//11
f 23//23 21//21 20//20
f 23//23 20//20 24//24
f 13//13 19//19 21//21
f 13//13 21//21 14//14
f 22//22 16//16 18//18
f 22//22 18//18 23//23
f 17//17 15//15 14//14
f 17//17 14//14 18//18
f 1//1 13//13 15//15
f 1//1 15//15 2//2
f 16//16 5//5 4//4
f 16//16 4//4 17//17
f 7//7 19//19 13//13
f 7//7 13//13 1//1
f 3//3 6//6 12//12
f 3//3 12//12 8//8
f 15//15 17//17 4//4
f 15//15 4//4 2//2
f 22//22 10//10 5//5
f 22//22 5//5 16//16
f 9//9 11//11 24//24
f 9//9 24//24 20//20
f 21//21 23//23 18//18
f 21//21 18//18 14//14
