o PULSO_RAGDOLL_B_DEBRIS_CHUNK_04
v -0.127168432 -0.176162317 -0.114873886
v -0.127544105 -0.189265892 -0.101846099
v -0.141603261 -0.175912529 -0.101193488
v -0.144809917 -0.187522933 0.0875975117
v -0.145355463 -0.17421262 0.101507746
v -0.157361671 -0.174195275 0.0876276195
v -0.148321703 0.194849744 -0.10826169
v -0.160156846 0.195064232 -0.0944578797
v -0.147717163 0.209086299 -0.0948946103
v -0.126309857 0.211160138 0.121573351
v -0.127002642 0.223313197 0.109204605
v -0.140801102 0.211238071 0.109259814
v 0.149186537 -0.179393157 -0.125712365
v 0.161855862 -0.179414794 -0.113019258
v 0.148886099 -0.192473888 -0.112576321
v 0.13952744 -0.176904738 0.115352146
v 0.140046522 -0.190249652 0.102621302
v 0.153266922 -0.177163854 0.102840312
v 0.140941709 0.211901367 -0.122285753
v 0.14062275 0.223492384 -0.109037459
v 0.154101714 0.210962787 -0.109728679
v 0.140177831 0.185927793 0.104011685
v 0.15338254 0.186212122 0.0898023248
v 0.140257731 0.200814798 0.0903957263
vn -0.356072217 -0.344533831 -0.868624866
vn -0.34093821 -0.871229649 -0.353157073
vn -0.870417297 -0.348122925 -0.348115146
vn -0.372638881 -0.873645246 0.312864482
vn -0.365599006 -0.344173044 0.864801884
vn -0.884486079 -0.342551798 0.316769153
vn -0.399561226 0.323846221 -0.857598066
vn -0.89199543 0.318332642 -0.320949256
vn -0.375964224 0.870416462 -0.317846268
vn -0.286399662 0.349296391 0.892170012
vn -0.286973089 0.882477224 0.372666568
vn -0.861872733 0.354804456 0.362338275
vn 0.322449714 -0.336200118 -0.88487047
vn 0.880567014 -0.337373167 -0.332837999
vn 0.333229512 -0.882263303 -0.332520127
vn 0.323642313 -0.337277055 0.884024799
vn 0.31943804 -0.874289751 0.365481734
vn 0.868239641 -0.330096751 0.370399922
vn 0.30280143 0.377556145 -0.875078678
vn 0.324523449 0.894059122 -0.3087762
vn 0.876270354 0.366955042 -0.312240869
vn 0.376698792 0.315567791 0.870927691
vn 0.874440134 0.322655231 0.36228165
vn 0.383382708 0.848030508 0.365871429
f 1//1 2//2 3//3
f 4//4 5//5 6//6
f 7//7 8//8 9//9
f 10//10 11//11 12//12
f 13//13 14//14 15//15
f 16//16 17//17 18//18
f 19//19 20//20 21//21
f 22//22 23//23 24//24
f 7//7 1//1 3//3
f 7//7 3//3 8//8
f 2//2 4//4 6//6
f 2//2 6//6 3//3
f 5//5 10//10 12//12
f 5//5 12//12 6//6
f 11//11 9//9 8//8
f 11//11 8//8 12//12
f 19//19 7//7 9//9
f 19//19 9//9 20//20
f 10//10 22//22 24//24
f 10//10 24//24 11//11
f 23//23 21//21 20//20
f 23//23 20//20 24//24
f 13//13 19//19 21//21
f 13//13 21//21 14//14
f 22//22 16//16 18//18
f 22//22 18//18 23//23
f 17//17 15//15 14//14
f 17//17 14//14 18//18
f 1//1 13//13 15//15
f 1//1 15//15 2//2
f 16//16 5//5 4//4
f 16//16 4//4 17//17
f 7//7 19//19 13//13
f 7//7 13//13 1//1
f 3//3 6//6 12//12
f 3//3 12//12 8//8
f 15//15 17//17 4//4
f 15//15 4//4 2//2
f 22//22 10//10 5//5
f 22//22 5//5 16//16
f 9//9 11//11 24//24
f 9//9 24//24 20//20
f 21//21 23//23 18//18
f 21//21 18//18 14//14
