o PULSO_RAGDOLL_A_DEBRIS_SECONDARY_SLAB
v -0.82100451 -0.239836767 -0.0836258009
v -0.822465718 -0.247114077 -0.0759040564
v -0.828718066 -0.239410967 -0.075857453
v -0.817204535 -0.237051427 0.0707376078
v -0.816580713 -0.228706822 0.0784247369
v -0.82468313 -0.229313597 0.0705845803
v -0.726083815 0.225866511 -0.0793518201
v -0.737424791 0.225787953 -0.0722339898
v -0.727548778 0.233662978 -0.0714529902
v -0.796877146 0.224496037 0.0721064806
v -0.792012751 0.232393667 0.0641954467
v -0.801345468 0.224451572 0.0650290698
v 0.838065147 -0.244342715 -0.0742613301
v 0.844096422 -0.242834389 -0.066684477
v 0.835243762 -0.250636816 -0.066423744
v 0.797472715 -0.21268484 0.0864387453
v 0.800053596 -0.222000137 0.0789739639
v 0.807153344 -0.214005068 0.0788797289
v 0.89003855 0.263060689 -0.0861560255
v 0.881025195 0.27004385 -0.0785105005
v 0.892600954 0.262616217 -0.0803475156
v 0.744987488 0.246938601 0.0754182413
v 0.758070648 0.247669205 0.0696657673
v 0.748480082 0.255476952 0.0674575567
vn -0.327770382 -0.31818524 -0.889564335
vn -0.386844277 -0.880476415 -0.274067014
vn -0.873869658 -0.256680906 -0.412876129
vn -0.352947325 -0.833990097 0.424133003
vn -0.362590879 -0.297141761 0.883308947
vn -0.917737722 -0.275009483 0.286578596
vn -0.249789014 0.376853198 -0.891956866
vn -0.742527843 0.427478999 -0.515668631
vn -0.254036069 0.885007977 -0.39016214
vn -0.409641236 0.381668717 0.828566909
vn -0.336808503 0.910820544 0.238675505
vn -0.88912487 0.425256968 0.169154838
vn 0.415945411 -0.435058862 -0.798569441
vn 0.918535292 -0.394554049 -0.0248996038
vn 0.344805807 -0.921996057 -0.176159427
vn 0.251580715 -0.261516392 0.931834936
vn 0.313717514 -0.810948849 0.4939062
vn 0.725867629 -0.270899683 0.632241666
vn 0.492001355 0.403245747 -0.771574676
vn 0.277923852 0.955240786 -0.101358242
vn 0.917896211 0.396079183 0.0242421478
vn 0.18665348 0.363974303 0.912514746
vn 0.615698814 0.36433664 0.698694289
vn 0.167172134 0.867425084 0.468644023
f 1//1 2//2 3//3
f 4//4 5//5 6//6
f 7//7 8//8 9//9
f 10//10 11//11 12//12
f 13//13 14//14 15//15
f 16//16 17//17 18//18
f 19//19 20//20 21//21
f 22//22 23//23 24//24
f 7//7 1//1 3//3
f 7//7 3//3 8//8
f 2//2 4//4 6//6
f 2//2 6//6 3//3
f 5//5 10//10 12//12
f 5//5 12//12 6//6
f 11//11 9//9 8//8
f 11//11 8//8 12//12
f 19//19 7//7 9//9
f 19//19 9//9 20//20
f 10//10 22//22 24//24
f 10//10 24//24 11//11
f 23//23 21//21 20//20
f 23//23 20//20 24//24
f 13//13 19//19 21//21
f 13//13 21//21 14//14
f 22//22 16//16 18//18
f 22//22 18//18 23//23
f 17//17 15//15 14//14
f 17//17 14//14 18//18
f 1//1 13//13 15//15
f 1//1 15//15 2//2
f 16//16 5//5 4//4
f 16//16 4//4 17//17
f 7//7 19//19 13//13
f 7//7 13//13 1//1
f 3//3 6//6 12//12
f 3//3 12//12 8//8
f 15//15 17//17 4//4
f 15//15 4//4 2//2
f 22//22 10//10 5//5
f 22//22 5//5 16//16
f 9//9 11//11 24//24
f 9//9 24//24 20//20
f 21//21 23//23 18//18
f 21//21 18//18 14//14
