o PULSO_RAGDOLL_A_DEBRIS_CHUNK_06
v -0.0986316875 -0.121337205 -0.0725707933
v -0.0982798189 -0.131092951 -0.0637058169
v -0.107086554 -0.122680709 -0.0633608252
v -0.0889655799 -0.141041264 0.0682760775
v -0.0886727944 -0.132617429 0.0771525428
v -0.0983731896 -0.132054195 0.0685368553
v -0.0925252885 0.102998488 -0.0681578666
v -0.102049477 0.104491241 -0.059099678
v -0.0927111581 0.113984458 -0.0591240525
v -0.0987151042 0.132767081 0.0733496919
v -0.0986529291 0.139949083 0.0643347055
v -0.107363224 0.131016806 0.0641513169
v 0.0843440369 -0.107913442 -0.0758848041
v 0.0938938484 -0.108662896 -0.0670499653
v 0.0845672488 -0.118438765 -0.0672928318
v 0.0915030017 -0.130337492 0.0687352195
v 0.0909720361 -0.137983382 0.0594911128
v 0.100106671 -0.128722012 0.059274327
v 0.0909003839 0.10774143 -0.0676841661
v 0.0913507566 0.117884748 -0.058321245
v 0.10014382 0.108959056 -0.0585366599
v 0.0937191099 0.125448406 0.0764869079
v 0.102619678 0.123921469 0.0675427318
v 0.093634367 0.133447826 0.0677737743
vn -0.342116445 -0.301570863 -0.889950275
vn -0.32318756 -0.859995604 -0.394914359
vn -0.875938475 -0.34147495 -0.340773493
vn -0.302506834 -0.905125737 0.298725754
vn -0.311582714 -0.373303831 0.87381947
vn -0.86239624 -0.362113059 0.353761017
vn -0.338966787 0.316921502 -0.885811687
vn -0.866129577 0.315852195 -0.387371868
vn -0.330154926 0.82409817 -0.460282385
vn -0.345528543 0.38340351 0.856511474
vn -0.351617694 0.9110834 0.215156153
vn -0.892024398 0.353400588 0.281781167
vn 0.332195938 -0.285726607 -0.898891628
vn 0.858842194 -0.312095195 -0.406185657
vn 0.353258938 -0.824254692 -0.442506939
vn 0.375115037 -0.384777516 0.84334749
vn 0.377050459 -0.89569205 0.235729992
vn 0.893230557 -0.363164783 0.265047878
vn 0.325701684 0.321999073 -0.8889516
vn 0.340369135 0.835529208 -0.431323469
vn 0.865379214 0.322208166 -0.383797735
vn 0.367943853 0.360821307 0.856986165
vn 0.897016227 0.328406006 0.295823365
vn 0.361577421 0.898577869 0.24863553
f 1//1 2//2 3//3
f 4//4 5//5 6//6
f 7//7 8//8 9//9
f 10//10 11//11 12//12
f 13//13 14//14 15//15
f 16//16 17//17 18//18
f 19//19 20//20 21//21
f 22//22 23//23 24//24
f 7//7 1//1 3//3
f 7//7 3//3 8//8
f 2//2 4//4 6//6
f 2//2 6//6 3//3
f 5//5 10//10 12//12
f 5//5 12//12 6//6
f 11//11 9//9 8//8
f 11//11 8//8 12//12
f 19//19 7//7 9//9
f 19//19 9//9 20//20
f 10//10 22//22 24//24
f 10//10 24//24 11//11
f 23//23 21//21 20//20
f 23//23 20//20 24//24
f 13//13 19//19 21//21
f 13//13 21//21 14//14
f 22//22 16//16 18//18
f 22//22 18//18 23//23
f 17//17 15//15 14//14
f 17//17 14//14 18//18
f 1//1 13//13 15//15
f 1//1 15//15 2//2
f 16//16 5//5 4//4
f 16//16 4//4 17//17
f 7//7 19//19 13//13
f 7//7 13//13 1//1
f 3//3 6//6 12//12
f 3//3 12//12 8//8
f 15//15 17//17 4//4
f 15//15 4//4 2//2
f 22//22 10//10 5//5
f 22//22 5//5 16//16
f 9//9 11//11 24//24
f 9//9 24//24 20//20
f 21//21 23//23 18//18
f 21//21 18//18 14//14
