o PULSO_RAGDOLL_A_DEBRIS_CHUNK_08
v -0.197347879 -0.187850088 -0.123987541
v -0.199097991 -0.200204045 -0.110300556
v -0.21381484 -0.18520917 -0.1100697
v -0.222262576 -0.165709645 0.0950081795
v -0.22211045 -0.148436978 0.110112235
v -0.235354036 -0.150827035 0.0951237381
v -0.194572404 0.158341289 -0.105423741
v -0.208493039 0.15997836 -0.0901527703
v -0.193563625 0.174897462 -0.089876689
v -0.182655409 0.184474692 0.120917022
v -0.181802779 0.197434217 0.106736168
v -0.198348567 0.183647811 0.106555164
v 0.206100091 -0.181559041 -0.0984030217
v 0.222195297 -0.178894997 -0.0827558115
v 0.20818232 -0.193969399 -0.0829554424
v 0.224762827 -0.146931261 0.115711361
v 0.224486426 -0.164109945 0.101461247
v 0.238310724 -0.149172068 0.101233386
v 0.184615031 0.156209871 -0.113147937
v 0.18491669 0.170865387 -0.0990618244
v 0.200697735 0.155980065 -0.0987160206
v 0.2031499 0.154874653 0.108320691
v 0.216834307 0.154028013 0.0930091366
v 0.200990021 0.169952095 0.0931267217
vn -0.307259023 -0.365820676 -0.878502786
vn -0.330597311 -0.901128769 -0.280485958
vn -0.880793154 -0.312627524 -0.355622649
vn -0.374057442 -0.830844164 0.412042558
vn -0.364502341 -0.283333391 0.887051523
vn -0.898665905 -0.280306011 0.337384313
vn -0.335077107 0.340244263 -0.878610909
vn -0.853583813 0.373174787 -0.363504231
vn -0.324655324 0.870260775 -0.370465994
vn -0.301490098 0.388193011 0.870867252
vn -0.277710408 0.909342051 0.309796721
vn -0.856727481 0.408264935 0.31517899
vn 0.358201802 -0.369754016 -0.857306004
vn 0.880559683 -0.323200613 -0.346635282
vn 0.371889472 -0.894692004 -0.247435763
vn 0.367637128 -0.282327384 0.886078
vn 0.362547904 -0.829590619 0.424662679
vn 0.904310286 -0.27710551 0.324708253
vn 0.319966316 0.338054866 -0.885065258
vn 0.329623699 0.861288905 -0.386690587
vn 0.843892157 0.361852527 -0.396117091
vn 0.38168928 0.36051625 0.851082444
vn 0.883801997 0.377964616 0.275747895
vn 0.3755548 0.87990737 0.291069835
f 1//1 2//2 3//3
f 4//4 5//5 6//6
f 7//7 8//8 9//9
f 10//10 11//11 12//12
f 13//13 14//14 15//15
f 16//16 17//17 18//18
f 19//19 20//20 21//21
f 22//22 23//23 24//24
f 7//7 1//1 3//3
f 7//7 3//3 8//8
f 2//2 4//4 6//6
f 2//2 6//6 3//3
f 5//5 10//10 12//12
f 5//5 12//12 6//6
f 11//11 9//9 8//8
f 11//11 8//8 12//12
f 19//19 7//7 9//9
f 19//19 9//9 20//20
f 10//10 22//22 24//24
f 10//10 24//24 11//11
f 23//23 21//21 20//20
f 23//23 20//20 24//24
f 13//13 19//19 21//21
f 13//13 21//21 14//14
f 22//22 16//16 18//18
f 22//22 18//18 23//23
f 17//17 15//15 14//14
f 17//17 14//14 18//18
f 1//1 13//13 15//15
f 1//1 15//15 2//2
f 16//16 5//5 4//4
f 16//16 4//4 17//17
f 7//7 19//19 13//13
f 7//7 13//13 1//1
f 3//3 6//6 12//12
f 3//3 12//12 8//8
f 15//15 17//17 4//4
f 15//15 4//4 2//2
f 22//22 10//10 5//5
f 22//22 5//5 16//16
f 9//9 11//11 24//24
f 9//9 24//24 20//20
f 21//21 23//23 18//18
f 21//21 18//18 14//14
