o PULSO_RAGDOLL_B_DEBRIS_CHUNK_02
v -0.139277875 -0.106676377 -0.0914776474
v -0.140826806 -0.125282317 -0.0714369789
v -0.160913363 -0.107088201 -0.0724083781
v -0.162216619 -0.121555179 0.087367177
v -0.165628687 -0.102058843 0.10530673
v -0.182148874 -0.103321664 0.0872111246
v -0.148401484 0.100947849 -0.101495348
v -0.169781655 0.102391794 -0.0825461894
v -0.151405573 0.12086986 -0.083334282
v -0.171417147 0.108911708 0.0927183628
v -0.169722438 0.127212629 0.0724176988
v -0.188296184 0.108942933 0.0726465136
v 0.159331396 -0.0932043046 -0.093510367
v 0.179253846 -0.0917679593 -0.0745673552
v 0.160406858 -0.111716397 -0.0736002475
v 0.166525856 -0.087652564 0.0935618654
v 0.166749924 -0.107231677 0.0727068782
v 0.184755474 -0.087273173 0.0735058412
v 0.156900793 0.0915478021 -0.101509862
v 0.156556636 0.110978879 -0.0832263604
v 0.17590414 0.0912991464 -0.0823961645
v 0.156440496 0.0954450741 0.108577684
v 0.175689369 0.0942878872 0.0904625878
v 0.155551568 0.114186406 0.0912373811
vn -0.296986669 -0.388955176 -0.872073889
vn -0.286354423 -0.895656943 -0.340293705
vn -0.825615048 -0.390182525 -0.40757519
vn -0.303492904 -0.891920924 0.335215092
vn -0.354270995 -0.343595684 0.869732082
vn -0.887666225 -0.366081148 0.279344171
vn -0.309884965 0.29304564 -0.904486358
vn -0.848325431 0.303003103 -0.434204042
vn -0.314745992 0.859665871 -0.402379841
vn -0.378863782 0.360306501 0.852432609
vn -0.349174023 0.893531978 0.282273322
vn -0.905799091 0.348525316 0.240952328
vn 0.343381166 -0.367830545 -0.864170134
vn 0.879310668 -0.325672984 -0.347490728
vn 0.369576812 -0.871513546 -0.322299749
vn 0.370184779 -0.341011137 0.864103317
vn 0.392525673 -0.857351363 0.332974643
vn 0.892521441 -0.321480185 0.316316426
vn 0.344968557 0.307312727 -0.886879742
vn 0.358795553 0.85933435 -0.364431351
vn 0.87137717 0.338452607 -0.355178446
vn 0.336258173 0.334067941 0.880527675
vn 0.87574172 0.338560045 0.344170779
vn 0.343806624 0.874196112 0.34289673
f 1//1 2//2 3//3
f 4//4 5//5 6//6
f 7//7 8//8 9//9
f 10//10 11//11 12//12
f 13//13 14//14 15//15
f 16//16 17//17 18//18
f 19//19 20//20 21//21
f 22//22 23//23 24//24
f 7//7 1//1 3//3
f 7//7 3//3 8//8
f 2//2 4//4 6//6
f 2//2 6//6 3//3
f 5//5 10//10 12//12
f 5//5 12//12 6//6
f 11//11 9//9 8//8
f 11//11 8//8 12//12
f 19//19 7//7 9//9
f 19//19 9//9 20//20
f 10//10 22//22 24//24
f 10//10 24//24 11//11
f 23//23 21//21 20//20
f 23//23 20//20 24//24
f 13//13 19//19 21//21
f 13//13 21//21 14//14
f 22//22 16//16 18//18
f 22//22 18//18 23//23
f 17//17 15//15 14//14
f 17//17 14//14 18//18
f 1//1 13//13 15//15
f 1//1 15//15 2//2
f 16//16 5//5 4//4
f 16//16 4//4 17//17
f 7//7 19//19 13//13
f 7//7 13//13 1//1
f 3//3 6//6 12//12
f 3//3 12//12 8//8
f 15//15 17//17 4//4
f 15//15 4//4 2//2
f 22//22 10//10 5//5
f 22//22 5//5 16//16
f 9//9 11//11 24//24
f 9//9 24//24 20//20
f 21//21 23//23 18//18
f 21//21 18//18 14//14
