o PULSO_RAGDOLL_B_DEBRIS_CHUNK_05
v -0.10446649 -0.136734471 -0.0805327073
v -0.105306216 -0.147572324 -0.0710718855
v -0.11502593 -0.137010485 -0.0708254278
v -0.12310601 -0.167320773 0.0775161982
v -0.123664111 -0.159211904 0.0870219767
v -0.131987438 -0.158348471 0.0774039775
v -0.113609873 0.167318553 -0.0842015967
v -0.122562908 0.166393131 -0.0748085976
v -0.113432519 0.175878122 -0.0749589801
v -0.105785757 0.151704043 0.0935052335
v -0.105755068 0.161992192 0.084371537
v -0.115675986 0.152044863 0.0845865309
v 0.127696931 -0.16270417 -0.089035213
v 0.136352211 -0.162965566 -0.0800062418
v 0.127573252 -0.171354041 -0.0797761902
v 0.11184679 -0.146878481 0.0939887688
v 0.112692319 -0.157177567 0.0849873871
v 0.122088492 -0.14726983 0.0849464163
v 0.104868352 0.168005645 -0.0841168687
v 0.104649149 0.177228019 -0.0745625719
v 0.114711486 0.167875782 -0.0747065023
v 0.111689925 0.164289877 0.0835871547
v 0.120665461 0.165015563 0.0737249032
v 0.111282341 0.173886076 0.0738544911
vn -0.358289957 -0.314124823 -0.879177988
vn -0.367980689 -0.838072836 -0.402770638
vn -0.861853123 -0.307636887 -0.403198093
vn -0.371626526 -0.887678683 0.271882713
vn -0.35846439 -0.354735792 0.86351943
vn -0.901214063 -0.342574626 0.265435219
vn -0.35627529 0.349300146 -0.866635621
vn -0.883176029 0.341281563 -0.321756184
vn -0.362923294 0.885923326 -0.288836777
vn -0.329627216 0.328796417 0.885007799
vn -0.338964015 0.85119015 0.400722951
vn -0.867697775 0.335180223 0.367089689
vn 0.318163067 -0.33679378 -0.886195362
vn 0.891042411 -0.337055922 -0.304034054
vn 0.320204884 -0.891401529 -0.320736974
vn 0.335346103 -0.314935148 0.887895703
vn 0.326978028 -0.863472164 0.384058893
vn 0.865470529 -0.302541971 0.399285942
vn 0.323586881 0.370550185 -0.870622754
vn 0.312984049 0.89414984 -0.320214003
vn 0.860898077 0.381717414 -0.336372226
vn 0.341234684 0.347287267 0.873470366
vn 0.864286482 0.372392118 0.338131696
vn 0.32675463 0.877556264 0.350893736
f 1//1 2//2 3//3
f 4//4 5//5 6//6
f 7//7 8//8 9//9
f 10//10 11//11 12//12
f 13//13 14//14 15//15
f 16//16 17//17 18//18
f 19//19 20//20 21//21
f 22//22 23//23 24//24
f 7//7 1//1 3//3
f 7//7 3//3 8//8
f 2//2 4//4 6//6
f 2//2 6//6 3//3
f 5//5 10//10 12//12
f 5//5 12//12 6//6
f 11//11 9//9 8//8
f 11//11 8//8 12//12
f 19//19 7//7 9//9
f 19//19 9//9 20//20
f 10//10 22//22 24//24
f 10//10 24//24 11//11
f 23//23 21//21 20//20
f 23//23 20//20 24//24
f 13//13 19//19 21//21
f 13//13 21//21 14//14
f 22//22 16//16 18//18
f 22//22 18//18 23//23
f 17//17 15//15 14//14
f 17//17 14//14 18//18
f 1//1 13//13 15//15
f 1//1 15//15 2//2
f 16//16 5//5 4//4
f 16//16 4//4 17//17
f 7//7 19//19 13//13
f 7//7 13//13 1//1
f 3//3 6//6 12//12
f 3//3 12//12 8//8
f 15//15 17//17 4//4
f 15//15 4//4 2//2
f 22//22 10//10 5//5
f 22//22 5//5 16//16
f 9//9 11//11 24//24
f 9//9 24//24 20//20
f 21//21 23//23 18//18
f 21//21 18//18 14//14
