o PULSO_RAGDOLL_A_DEBRIS_CHUNK_01
v -0.117759109 -0.185838073 -0.0596309751
v -0.117882431 -0.192571312 -0.05141671
v -0.126222432 -0.185334742 -0.0514910445
v -0.119552024 -0.171395347 0.0553520657
v -0.119546153 -0.161344215 0.0633686334
v -0.127749488 -0.163011223 0.0551400408
v -0.121940188 0.187242031 -0.0618200637
v -0.129728168 0.184334695 -0.0535689108
v -0.121485673 0.193135127 -0.0538853332
v -0.114279188 0.151213929 0.0580025874
v -0.114691406 0.162035495 0.0498828962
v -0.123189695 0.152712703 0.0495216586
v 0.118450105 -0.148319632 -0.0543118976
v 0.126681551 -0.147946492 -0.045765128
v 0.118223108 -0.157645583 -0.045890443
v 0.11638578 -0.159243047 0.0611517653
v 0.116428725 -0.166717008 0.0528464727
v 0.124871403 -0.158252805 0.0527285002
v 0.127325937 0.185777515 -0.0590389706
v 0.127045348 0.193107069 -0.0508853346
v 0.135167688 0.184633046 -0.0506036505
v 0.120246932 0.170315877 0.061237894
v 0.129093021 0.17198661 0.053032469
v 0.120863326 0.179704636 0.0529680029
vn -0.294147253 -0.391218722 -0.872023642
vn -0.273865283 -0.919008732 -0.283585727
vn -0.875495791 -0.387479186 -0.288733453
vn -0.305418342 -0.856162012 0.4167808
vn -0.335808456 -0.299934477 0.892900884
vn -0.861738563 -0.314774603 0.397899091
vn -0.360427409 0.398718059 -0.843276858
vn -0.906737387 0.344879657 -0.2426631
vn -0.373736888 0.910216212 -0.178402171
vn -0.346560895 0.284671813 0.893788278
vn -0.362194866 0.787209034 0.499115974
vn -0.861848474 0.289069265 0.416720808
vn 0.389659643 -0.327601075 -0.860722244
vn 0.886739731 -0.319496095 -0.334088266
vn 0.414049894 -0.848346114 -0.32995683
vn 0.339114636 -0.342181921 0.876306355
vn 0.377413511 -0.858177423 0.347980797
vn 0.876368165 -0.347282588 0.333726615
vn 0.374076724 0.369284511 -0.850702941
vn 0.347002625 0.912904441 -0.214929387
vn 0.898072481 0.33878088 -0.28052327
vn 0.305291504 0.305215329 0.902020335
vn 0.854973078 0.326975465 0.402626365
vn 0.298104912 0.830961108 0.469720274
f 1//1 2//2 3//3
f 4//4 5//5 6//6
f 7//7 8//8 9//9
f 10//10 11//11 12//12
f 13//13 14//14 15//15
f 16//16 17//17 18//18
f 19//19 20//20 21//21
f 22//22 23//23 24//24
f 7//7 1//1 3//3
f 7//7 3//3 8//8
f 2//2 4//4 6//6
f 2//2 6//6 3//3
f 5//5 10//10 12//12
f 5//5 12//12 6//6
f 11//11 9//9 8//8
f 11//11 8//8 12//12
f 19//19 7//7 9//9
f 19//19 9//9 20//20
f 10//10 22//22 24//24
f 10//10 24//24 11//11
f 23//23 21//21 20//20
f 23//23 20//20 24//24
f 13//13 19//19 21//21
f 13//13 21//21 14//14
f 22//22 16//16 18//18
f 22//22 18//18 23//23
f 17//17 15//15 14//14
f 17//17 14//14 18//18
f 1//1 13//13 15//15
f 1//1 15//15 2//2
f 16//16 5//5 4//4
f 16//16 4//4 17//17
f 7//7 19//19 13//13
f 7//7 13//13 1//1
f 3//3 6//6 12//12
f 3//3 12//12 8//8
f 15//15 17//17 4//4
f 15//15 4//4 2//2
f 22//22 10//10 5//5
f 22//22 5//5 16//16
f 9//9 11//11 24//24
f 9//9 24//24 20//20
f 21//21 23//23 18//18
f 21//21 18//18 14//14
