o PULSO_RAGDOLL_A_DEBRIS_CHUNK_09
v -0.164652258 -0.205211326 -0.0781555995
v -0.164224163 -0.212430552 -0.0701594353
v -0.171623722 -0.20521307 -0.0706733242
v -0.146037012 -0.199470356 0.0700761154
v -0.144848198 -0.190791532 0.0779870823
v -0.15377517 -0.191411123 0.0703520402
v -0.134597272 0.179383785 -0.0811382458
v -0.142573938 0.179944381 -0.0731547028
v -0.134047747 0.18819581 -0.073324427
v -0.134541661 0.19706516 0.0811194107
v -0.134320349 0.204110593 0.0733140334
v -0.142445102 0.196095154 0.0732384473
v 0.144011229 -0.178159043 -0.0642753392
v 0.151972398 -0.178431556 -0.055932425
v 0.143682286 -0.187129542 -0.0559921712
v 0.143600583 -0.194553331 0.0700477809
v 0.143801823 -0.201456726 0.061999917
v 0.151505321 -0.193604261 0.0619368702
v 0.162903309 0.191619724 -0.0836140141
v 0.161736086 0.19986175 -0.0761189759
v 0.169409856 0.192293242 -0.075914152
v 0.133290485 0.198561445 0.0796470195
v 0.142644182 0.198272526 0.071812734
v 0.134404719 0.206149802 0.0719305575
vn -0.331356198 -0.355935276 -0.87379235
vn -0.322227001 -0.899305463 -0.295667887
vn -0.899557233 -0.334651589 -0.280722588
vn -0.312810421 -0.865752161 0.390669614
vn -0.310884416 -0.332170129 0.890513301
vn -0.854232311 -0.304201633 0.421602249
vn -0.339268565 0.319535315 -0.884756505
vn -0.867483556 0.360031456 -0.343292296
vn -0.345696539 0.848907828 -0.399811655
vn -0.329195976 0.360296518 0.872820914
vn -0.34663102 0.893032432 0.286949486
vn -0.864018261 0.371760398 0.339509338
vn 0.381506503 -0.350984871 -0.855138838
vn 0.887217045 -0.340564966 -0.311225623
vn 0.379585713 -0.852697492 -0.358917415
vn 0.343772978 -0.361944705 0.866496503
vn 0.365701288 -0.879870236 0.303464979
vn 0.871113122 -0.35176295 0.342672735
vn 0.374361366 0.299112111 -0.877716124
vn 0.340709776 0.873371542 -0.348050386
vn 0.903145969 0.326175898 -0.279171407
vn 0.315658957 0.347128868 0.883097351
vn 0.843564928 0.343086153 0.413146496
vn 0.308880597 0.886908472 0.343491226
f 1//1 2//2 3//3
f 4//4 5//5 6//6
f 7//7 8//8 9//9
f 10//10 11//11 12//12
f 13//13 14//14 15//15
f 16//16 17//17 18//18
f 19//19 20//20 21//21
f 22//22 23//23 24//24
f 7//7 1//1 3//3
f 7//7 3//3 8//8
f 2//2 4//4 6//6
f 2//2 6//6 3//3
f 5//5 10//10 12//12
f 5//5 12//12 6//6
f 11//11 9//9 8//8
f 11//11 8//8 12//12
f 19//19 7//7 9//9
f 19//19 9//9 20//20
f 10//10 22//22 24//24
f 10//10 24//24 11//11
f 23//23 21//21 20//20
f 23//23 20//20 24//24
f 13//13 19//19 21//21
f 13//13 21//21 14//14
f 22//22 16//16 18//18
f 22//22 18//18 23//23
f 17//17 15//15 14//14
f 17//17 14//14 18//18
f 1//1 13//13 15//15
f 1//1 15//15 2//2
f 16//16 5//5 4//4
f 16//16 4//4 17//17
f 7//7 19//19 13//13
f 7//7 13//13 1//1
f 3//3 6//6 12//12
f 3//3 12//12 8//8
f 15//15 17//17 4//4
f 15//15 4//4 2//2
f 22//22 10//10 5//5
f 22//22 5//5 16//16
f 9//9 11//11 24//24
f 9//9 24//24 20//20
f 21//21 23//23 18//18
f 21//21 18//18 14//14
