o PULSO_RAGDOLL_B_DEBRIS_CHUNK_03
v -0.222051516 -0.153914079 -0.105699584
v -0.221820623 -0.173409641 -0.0858132318
v -0.240007475 -0.154387265 -0.0862286091
v -0.20812881 -0.173279881 0.0730705485
v -0.208056271 -0.153653696 0.0928111225
v -0.229337186 -0.153736785 0.0731606632
v -0.201100141 0.132451788 -0.110104062
v -0.223742411 0.131436989 -0.0914358422
v -0.202651456 0.151162773 -0.091016762
v -0.230679557 0.123762965 0.0956803635
v -0.229058266 0.144118607 0.0764071941
v -0.247206971 0.124224365 0.0759536326
v 0.196464896 -0.144040957 -0.104777314
v 0.218080178 -0.144769087 -0.0853714272
v 0.19711338 -0.164726883 -0.085867919
v 0.214564309 -0.155116439 0.0970796198
v 0.213909507 -0.173534989 0.0770071894
v 0.232159853 -0.154115126 0.0778411776
v 0.215791181 0.136590511 -0.0969041139
v 0.214700863 0.155763403 -0.0768432468
v 0.232976541 0.136474267 -0.0768499672
v 0.193561599 0.132550597 0.104841627
v 0.215526283 0.13335073 0.0858904272
v 0.19448334 0.152430058 0.0858948976
vn -0.338430256 -0.326577693 -0.882503152
vn -0.346658468 -0.876753807 -0.333362639
vn -0.875673354 -0.33982414 -0.34309718
vn -0.320352495 -0.883033097 0.34296751
vn -0.335323632 -0.370996952 0.865978837
vn -0.867165029 -0.363236874 0.34071064
vn -0.300283551 0.360106766 -0.883262634
vn -0.851717174 0.351311326 -0.388790578
vn -0.317916632 0.878326476 -0.357031763
vn -0.385458261 0.304365486 0.871081889
vn -0.379208773 0.8658548 0.326337606
vn -0.899255514 0.317207932 0.301195294
vn 0.334310263 -0.33319214 -0.881600618
vn 0.864436328 -0.336315423 -0.37368682
vn 0.330292821 -0.85950017 -0.390084714
vn 0.348829836 -0.351639956 0.868715823
vn 0.360048383 -0.886830449 0.289649487
vn 0.886446118 -0.339871973 0.31416592
vn 0.373376936 0.342476606 -0.862148166
vn 0.358273655 0.887399375 -0.290107429
vn 0.88981986 0.342945278 -0.30101344
vn 0.301208168 0.337326318 0.891899526
vn 0.853065848 0.352004886 0.385189891
vn 0.301668346 0.869461417 0.391194493
f 1//1 2//2 3//3
f 4//4 5//5 6//6
f 7//7 8//8 9//9
f 10//10 11//11 12//12
f 13//13 14//14 15//15
f 16//16 17//17 18//18
f 19//19 20//20 21//21
f 22//22 23//23 24//24
f 7//7 1//1 3//3
f 7//7 3//3 8//8
f 2//2 4//4 6//6
f 2//2 6//6 3//3
f 5//5 10//10 12//12
f 5//5 12//12 6//6
f 11//11 9//9 8//8
f 11//11 8//8 12//12
f 19//19 7//7 9//9
f 19//19 9//9 20//20
f 10//10 22//22 24//24
f 10//10 24//24 11//11
f 23//23 21//21 20//20
f 23//23 20//20 24//24
f 13//13 19//19 21//21
f 13//13 21//21 14//14
f 22//22 16//16 18//18
f 22//22 18//18 23//23
f 17//17 15//15 14//14
f 17//17 14//14 18//18
f 1//1 13//13 15//15
f 1//1 15//15 2//2
f 16//16 5//5 4//4
f 16//16 4//4 17//17
f 7//7 19//19 13//13
f 7//7 13//13 1//1
f 3//3 6//6 12//12
f 3//3 12//12 8//8
f 15//15 17//17 4//4
f 15//15 4//4 2//2
f 22//22 10//10 5//5
f 22//22 5//5 16//16
f 9//9 11//11 24//24
f 9//9 24//24 20//20
f 21//21 23//23 18//18
f 21//21 18//18 14//14
