o PULSO_RAGDOLL_A_DEBRIS_CHUNK_04
v -0.139837012 -0.102448761 -0.0736880079
v -0.138070121 -0.116701439 -0.057492163
v -0.153181732 -0.102684714 -0.0584133416
v -0.125054836 -0.112403631 0.0685974509
v -0.123881064 -0.0969512239 0.0827475563
v -0.140284956 -0.0976935178 0.0684505627
v -0.14268963 0.0967581868 -0.0906867981
v -0.156278625 0.0979138315 -0.0767543986
v -0.141476333 0.112034723 -0.0770520419
v -0.128145278 0.101719297 0.0742950514
v -0.129701421 0.116184637 0.0587097928
v -0.144329622 0.101762332 0.0592462905
v 0.132484004 -0.0872753263 -0.0801461786
v 0.146662265 -0.0872020945 -0.0657499656
v 0.131686255 -0.10291113 -0.0657819062
v 0.125039399 -0.0942642987 0.0752627105
v 0.12568979 -0.108420536 0.0601565316
v 0.140623763 -0.093366988 0.0598994866
v 0.133282438 0.0831518322 -0.0754326805
v 0.132563516 0.0991450101 -0.0600694939
v 0.147331625 0.0834544972 -0.0595982298
v 0.12513569 0.0941388011 0.077134259
v 0.140824065 0.0925354809 0.0624700561
v 0.125937954 0.107927427 0.0625020862
vn -0.34896031 -0.389432728 -0.852390051
vn -0.326705843 -0.898098767 -0.294418067
vn -0.884661913 -0.387229055 -0.25966686
vn -0.301080197 -0.87401551 0.381375849
vn -0.301838905 -0.324066013 0.896590471
vn -0.841800332 -0.338222861 0.42068696
vn -0.335369915 0.305850536 -0.891056895
vn -0.892750263 0.326257378 -0.31072998
vn -0.310137093 0.876650453 -0.367829889
vn -0.313224703 0.365050286 0.876714647
vn -0.314232647 0.89145726 0.326438069
vn -0.851107419 0.352957964 0.388634533
vn 0.365223467 -0.338441402 -0.867219269
vn 0.889094591 -0.323212415 -0.32410571
vn 0.363064736 -0.865791321 -0.344368279
vn 0.344797701 -0.340371966 0.874792278
vn 0.360987365 -0.869926572 0.33602953
vn 0.8693524 -0.344001293 0.354809076
vn 0.384372652 0.315138519 -0.86772424
vn 0.388953239 0.849394977 -0.356712073
vn 0.892454088 0.327784777 -0.309972435
vn 0.339926541 0.355591476 0.870634615
vn 0.872436464 0.333328277 0.357416928
vn 0.360143721 0.87727648 0.31730485
f 1//1 2//2 3//3
f 4//4 5//5 6//6
f 7//7 8//8 9//9
f 10//10 11//11 12//12
f 13//13 14//14 15//15
f 16//16 17//17 18//18
f 19//19 20//20 21//21
f 22//22 23//23 24//24
f 7//7 1//1 3//3
f 7//7 3//3 8//8
f 2//2 4//4 6//6
f 2//2 6//6 3//3
f 5//5 10//10 12//12
f 5//5 12//12 6//6
f 11//11 9//9 8//8
f 11//11 8//8 12//12
f 19//19 7//7 9//9
f 19//19 9//9 20//20
f 10//10 22//22 24//24
f 10//10 24//24 11//11
f 23//23 21//21 20//20
f 23//23 20//20 24//24
f 13//13 19//19 21//21
f 13//13 21//21 14//14
f 22//22 16//16 18//18
f 22//22 18//18 23//23
f 17//17 15//15 14//14
f 17//17 14//14 18//18
f 1//1 13//13 15//15
f 1//1 15//15 2//2
f 16//16 5//5 4//4
f 16//16 4//4 17//17
f 7//7 19//19 13//13
f 7//7 13//13 1//1
f 3//3 6//6 12//12
f 3//3 12//12 8//8
f 15//15 17//17 4//4
f 15//15 4//4 2//2
f 22//22 10//10 5//5
f 22//22 5//5 16//16
f 9//9 11//11 24//24
f 9//9 24//24 20//20
f 21//21 23//23 18//18
f 21//21 18//18 14//14
