o PULSO_RAGDOLL_B_DEBRIS_CHUNK_07
v -0.154002875 -0.139243469 -0.0632420778
v -0.153323218 -0.144709766 -0.057348989
v -0.159066856 -0.138483748 -0.0570885539
v -0.133221462 -0.132303044 0.0526627973
v -0.132201105 -0.125442728 0.0589209348
v -0.139475986 -0.126018852 0.0527778827
v -0.129999012 0.150496542 -0.0528091751
v -0.136313856 0.150116995 -0.0465246551
v -0.129641205 0.156482354 -0.0464187264
v -0.1317316 0.146803692 0.0641920194
v -0.13160561 0.153167129 0.0581508949
v -0.137779921 0.146775216 0.0581332445
v 0.137157455 -0.13957487 -0.0654538795
v 0.144208163 -0.139007598 -0.0593847223
v 0.138153225 -0.14519541 -0.0594740286
v 0.155653834 -0.128242895 0.0617958903
v 0.154823095 -0.134951726 0.0556942374
v 0.160938114 -0.128826588 0.0557654276
v 0.129244074 0.159998178 -0.0578476749
v 0.130080864 0.166010931 -0.0515495539
v 0.136462241 0.160080552 -0.0518980473
v 0.149676666 0.157214671 0.059712179
v 0.15477775 0.15758349 0.0535353906
v 0.148402065 0.163521215 0.0535198264
vn -0.394861341 -0.333196253 -0.856192052
vn -0.37642011 -0.895283401 -0.238276154
vn -0.919984937 -0.308486074 -0.241793513
vn -0.323035926 -0.83660394 0.44242686
vn -0.312727243 -0.319920421 0.894344807
vn -0.84408462 -0.308621496 0.438490599
vn -0.356548309 0.384535581 -0.851472735
vn -0.876092136 0.381497383 -0.294826031
vn -0.352956057 0.881708205 -0.31306991
vn -0.335257322 0.323124409 0.88498199
vn -0.355746865 0.86255157 0.359790027
vn -0.85873127 0.341882706 0.381702602
vn 0.303608924 -0.337070525 -0.891181886
vn 0.845774293 -0.327077538 -0.42152831
vn 0.331801385 -0.886865556 -0.321523547
vn 0.374742538 -0.32072258 0.869887948
vn 0.350926727 -0.861464918 0.367053986
vn 0.907372534 -0.325076014 0.266459376
vn 0.27971375 0.372848362 -0.884728372
vn 0.285336018 0.889972985 -0.355712563
vn 0.818597913 0.371768981 -0.437818706
vn 0.374473363 0.349931687 0.858671963
vn 0.896042347 0.372559607 0.241469249
vn 0.329092443 0.890036106 0.315490127
f 1//1 2//2 3//3
f 4//4 5//5 6//6
f 7//7 8//8 9//9
f 10//10 11//11 12//12
f 13//13 14//14 15//15
f 16//16 17//17 18//18
f 19//19 20//20 21//21
f 22//22 23//23 24//24
f 7//7 1//1 3//3
f 7//7 3//3 8//8
f 2//2 4//4 6//6
f 2//2 6//6 3//3
f 5//5 10//10 12//12
f 5//5 12//12 6//6
f 11//11 9//9 8//8
f 11//11 8//8 12//12
f 19//19 7//7 9//9
f 19//19 9//9 20//20
f 10//10 22//22 24//24
f 10//10 24//24 11//11
f 23//23 21//21 20//20
f 23//23 20//20 24//24
f 13//13 19//19 21//21
f 13//13 21//21 14//14
f 22//22 16//16 18//18
f 22//22 18//18 23//23
f 17//17 15//15 14//14
f 17//17 14//14 18//18
f 1//1 13//13 15//15
f 1//1 15//15 2//2
f 16//16 5//5 4//4
f 16//16 4//4 17//17
f 7//7 19//19 13//13
f 7//7 13//13 1//1
f 3//3 6//6 12//12
f 3//3 12//12 8//8
f 15//15 17//17 4//4
f 15//15 4//4 2//2
f 22//22 10//10 5//5
f 22//22 5//5 16//16
f 9//9 11//11 24//24
f 9//9 24//24 20//20
f 21//21 23//23 18//18
f 21//21 18//18 14//14
