o PULSO_RAGDOLL_B_DEBRIS_CHUNK_00
v -0.0776841864 -0.138253972 -0.087987788
v -0.0779587254 -0.155590445 -0.0722667724
v -0.0948205441 -0.139229223 -0.0728421211
v -0.0880222246 -0.168502986 0.0786477625
v -0.0894430578 -0.153667808 0.0943754017
v -0.10435725 -0.151254967 0.0800102502
v -0.0917655677 0.136864066 -0.0855369717
v -0.107716411 0.136851236 -0.0684015676
v -0.0926835462 0.155487821 -0.0693972707
v -0.0926252678 0.160585821 0.0865904018
v -0.0927952155 0.174162209 0.0702320039
v -0.10866414 0.158843592 0.070466429
v 0.0786983669 -0.141152814 -0.08076974
v 0.0946268961 -0.143696621 -0.0637047589
v 0.07874576 -0.159755096 -0.0640312955
v 0.0777832419 -0.165139332 0.0775653794
v 0.0779330432 -0.178671092 0.0610592812
v 0.0938755348 -0.163586468 0.0598775819
v 0.0755096823 0.162069663 -0.0952999219
v 0.0755379349 0.177054197 -0.0801225081
v 0.0915994719 0.16326353 -0.0801869556
v 0.0762493536 0.151263535 0.086937733
v 0.092238307 0.151624501 0.0710432306
v 0.0761244968 0.168575838 0.0714898258
vn -0.317155004 -0.331389844 -0.888590753
vn -0.332481772 -0.842163384 -0.424519479
vn -0.853354752 -0.343120605 -0.392497122
vn -0.353948474 -0.89580065 0.268815458
vn -0.333357036 -0.362715423 0.87023598
vn -0.884607315 -0.345941901 0.312720239
vn -0.388031542 0.281513691 -0.877599895
vn -0.884815097 0.275957823 -0.375432611
vn -0.415531933 0.825424016 -0.382110506
vn -0.320052892 0.372606695 0.871051311
vn -0.362779915 0.88464272 0.29291293
vn -0.891395569 0.344939798 0.293990433
vn 0.346623182 -0.328046829 -0.878770471
vn 0.870551467 -0.332618922 -0.362635881
vn 0.329562634 -0.849705517 -0.411568969
vn 0.369874716 -0.387528419 0.844401777
vn 0.335687906 -0.909587801 0.24487491
vn 0.884764194 -0.370109171 0.283216536
vn 0.291268587 0.338419795 -0.894781947
vn 0.27810213 0.889838874 -0.361726344
vn 0.867255986 0.363912046 -0.339757323
vn 0.371224672 0.323522866 0.870359182
vn 0.875334084 0.327786028 0.355452776
vn 0.331364095 0.877243698 0.347334534
f 1//1 2//2 3//3
f 4//4 5//5 6//6
f 7//7 8//8 9//9
f 10//10 11//11 12//12
f 13//13 14//14 15//15
f 16//16 17//17 18//18
f 19//19 20//20 21//21
f 22//22 23//23 24//24
f 7//7 1//1 3//3
f 7//7 3//3 8//8
f 2//2 4//4 6//6
f 2//2 6//6 3//3
f 5//5 10//10 12//12
f 5//5 12//12 6//6
f 11//11 9//9 8//8
f 11//11 8//8 12//12
f 19//19 7//7 9//9
f 19//19 9//9 20//20
f 10//10 22//22 24//24
f 10//10 24//24 11//11
f 23//23 21//21 20//20
f 23//23 20//20 24//24
f 13//13 19//19 21//21
f 13//13 21//21 14//14
f 22//22 16//16 18//18
f 22//22 18//18 23//23
f 17//17 15//15 14//14
f 17//17 14//14 18//18
f 1//1 13//13 15//15
f 1//1 15//15 2//2
f 16//16 5//5 4//4
f 16//16 4//4 17//17
f 7//7 19//19 13//13
f 7//7 13//13 1//1
f 3//3 6//6 12//12
f 3//3 12//12 8//8
f 15//15 17//17 4//4
f 15//15 4//4 2//2
f 22//22 10//10 5//5
f 22//22 5//5 16//16
f 9//9 11//11 24//24
f 9//9 24//24 20//20
f 21//21 23//23 18//18
f 21//21 18//18 14//14
