o PULSO_RAGDOLL_A_DEBRIS_CHUNK_02
v -0.0915161148 -0.139846593 -0.0507061854
v -0.0910903439 -0.147743836 -0.0430636406
v -0.0984186307 -0.140420988 -0.0430318788
v -0.0821559206 -0.148489639 0.0391935222
v -0.0817024112 -0.140904412 0.0473700836
v -0.0901900679 -0.142101422 0.039239563
v -0.0762340575 0.139351144 -0.0488609932
v -0.0852073431 0.137961552 -0.0407801904
v -0.076904051 0.145665318 -0.0411355831
v -0.0937222615 0.120195098 0.0602343678
v -0.0925400108 0.129305273 0.0528911576
v -0.100133747 0.120954193 0.0533019267
v 0.0947877169 -0.130788952 -0.0512735806
v 0.101531632 -0.129038349 -0.0436630659
v 0.0941694379 -0.137199983 -0.0434636399
v 0.0819162503 -0.113172762 0.0564366207
v 0.0826792344 -0.122291043 0.0492609926
v 0.0906163901 -0.113265321 0.049315542
v 0.0814590752 0.13725327 -0.0582640655
v 0.0819607601 0.144752219 -0.0508114435
v 0.0900509581 0.136937395 -0.0510687605
v 0.0927043334 0.133659959 0.0461451486
v 0.0995438248 0.134468004 0.0378556363
v 0.0922119841 0.141626135 0.0381219238
vn -0.354936361 -0.342457771 -0.869909704
vn -0.303467602 -0.907110333 -0.291647404
vn -0.874670386 -0.345473081 -0.340000212
vn -0.25520435 -0.886786342 0.385332018
vn -0.29474771 -0.370582879 0.880790651
vn -0.852583647 -0.396033615 0.34096694
vn -0.341636121 0.383156717 -0.858181596
vn -0.864797175 0.372170568 -0.337068111
vn -0.342884421 0.895089686 -0.285034418
vn -0.355404556 0.283997834 0.890523911
vn -0.359784782 0.84633404 0.392776817
vn -0.886927843 0.302649349 0.348944694
vn 0.366412103 -0.366529703 -0.855218172
vn 0.904122949 -0.329098284 -0.272499651
vn 0.413288683 -0.878974855 -0.237898424
vn 0.343394667 -0.29226619 0.892558515
vn 0.381678015 -0.809348226 0.446404845
vn 0.864290476 -0.283991992 0.415151209
vn 0.302602708 0.356803536 -0.883811474
vn 0.304149032 0.894792676 -0.326863259
vn 0.858963132 0.352284878 -0.371588051
vn 0.359727055 0.32838431 0.873361468
vn 0.879948378 0.354074717 0.316736221
vn 0.349064708 0.867906153 0.353401691
f 1//1 2//2 3//3
f 4//4 5//5 6//6
f 7//7 8//8 9//9
f 10//10 11//11 12//12
f 13//13 14//14 15//15
f 16//16 17//17 18//18
f 19//19 20//20 21//21
f 22//22 23//23 24//24
f 7//7 1//1 3//3
f 7//7 3//3 8//8
f 2//2 4//4 6//6
f 2//2 6//6 3//3
f 5//5 10//10 12//12
f 5//5 12//12 6//6
f 11//11 9//9 8//8
f 11//11 8//8 12//12
f 19//19 7//7 9//9
f 19//19 9//9 20//20
f 10//10 22//22 24//24
f 10//10 24//24 11//11
f 23//23 21//21 20//20
f 23//23 20//20 24//24
f 13//13 19//19 21//21
f 13//13 21//21 14//14
f 22//22 16//16 18//18
f 22//22 18//18 23//23
f 17//17 15//15 14//14
f 17//17 14//14 18//18
f 1//1 13//13 15//15
f 1//1 15//15 2//2
f 16//16 5//5 4//4
f 16//16 4//4 17//17
f 7//7 19//19 13//13
f 7//7 13//13 1//1
f 3//3 6//6 12//12
f 3//3 12//12 8//8
f 15//15 17//17 4//4
f 15//15 4//4 2//2
f 22//22 10//10 5//5
f 22//22 5//5 16//16
f 9//9 11//11 24//24
f 9//9 24//24 20//20
f 21//21 23//23 18//18
f 21//21 18//18 14//14
