o PULSO_RAGDOLL_B_DEBRIS_BEAM
v -0.78744626 -0.0844715312 -0.103974327
v -0.785801172 -0.102597617 -0.0882895961
v -0.798853397 -0.0867672861 -0.0887140706
v -0.709543705 -0.115014851 0.0760897696
v -0.701828778 -0.0994296446 0.0922085568
v -0.725866139 -0.0983364582 0.0768505558
v -0.723983586 0.0767844394 -0.0927389041
v -0.738418043 0.0781314671 -0.0760270357
v -0.714918554 0.094272539 -0.0746888518
v -0.684809268 0.0827379972 0.0846577585
v -0.686332226 0.0990259871 0.0670279488
v -0.705082536 0.0820931345 0.0678455159
v 0.668287277 -0.0757085532 -0.0957250297
v 0.696357727 -0.0784944296 -0.0817067027
v 0.670244634 -0.094512336 -0.0801233575
v 0.789959908 -0.0979505777 0.0991453454
v 0.785513043 -0.112875789 0.0817029104
v 0.799404323 -0.097415112 0.0846939087
v 0.750951707 0.0986696556 -0.0833221301
v 0.752089679 0.115381688 -0.0652974322
v 0.763713121 0.100346871 -0.0675116628
v 0.68520242 0.0962525606 0.106273361
v 0.710287273 0.0982545689 0.0908520296
v 0.684250176 0.11325565 0.0901811197
vn -0.437138289 -0.179977059 -0.881202817
vn -0.419942468 -0.859547734 -0.291249126
vn -0.967986107 -0.186938688 -0.167501658
vn -0.301881701 -0.873222113 0.382557839
vn -0.266949028 -0.330709249 0.905190408
vn -0.791039109 -0.234311566 0.565115154
vn -0.322911233 0.46658352 -0.823424637
vn -0.825149834 0.542516947 -0.157490104
vn -0.290987462 0.910989821 -0.29227373
vn -0.27893129 0.369074225 0.88655597
vn -0.288929433 0.888158381 0.357343465
vn -0.744123876 0.455433726 0.488732874
vn 0.19765912 -0.329643399 -0.923182607
vn 0.709964752 -0.38579604 -0.589161634
vn 0.189936683 -0.843763053 -0.50198406
vn 0.412638187 -0.274073064 0.868684947
vn 0.36413151 -0.924719691 0.110913023
vn 0.928576171 -0.309408993 0.204968959
vn 0.346755624 0.287034333 -0.892956853
vn 0.36709249 0.900208831 -0.234237373
vn 0.858977497 0.358009666 -0.366041869
vn 0.206889063 0.40652734 0.88990581
vn 0.766449153 0.487399042 0.418327302
vn 0.207156807 0.890221477 0.405699223
f 1//1 2//2 3//3
f 4//4 5//5 6//6
f 7//7 8//8 9//9
f 10//10 11//11 12//12
f 13//13 14//14 15//15
f 16//16 17//17 18//18
f 19//19 20//20 21//21
f 22//22 23//23 24//24
f 7//7 1//1 3//3
f 7//7 3//3 8//8
f 2//2 4//4 6//6
f 2//2 6//6 3//3
f 5//5 10//10 12//12
f 5//5 12//12 6//6
f 11//11 9//9 8//8
f 11//11 8//8 12//12
f 19//19 7//7 9//9
f 19//19 9//9 20//20
f 10//10 22//22 24//24
f 10//10 24//24 11//11
f 23//23 21//21 20//20
f 23//23 20//20 24//24
f 13//13 19//19 21//21
f 13//13 21//21 14//14
f 22//22 16//16 18//18
f 22//22 18//18 23//23
f 17//17 15//15 14//14
f 17//17 14//14 18//18
f 1//1 13//13 15//15
f 1//1 15//15 2//2
f 16//16 5//5 4//4
f 16//16 4//4 17//17
f 7//7 19//19 13//13
f 7//7 13//13 1//1
f 3//3 6//6 12//12
f 3//3 12//12 8//8
f 15//15 17//17 4//4
f 15//15 4//4 2//2
f 22//22 10//10 5//5
f 22//22 5//5 16//16
f 9//9 11//11 24//24
f 9//9 24//24 20//20
f 21//21 23//23 18//18
f 21//21 18//18 14//14
