o PULSO_RAGDOLL_A_DEBRIS_PRIMARY_SLAB
v -0.939154387 -0.296523422 -0.0814534575
v -0.930014193 -0.307524145 -0.0709483922
v -0.943336129 -0.297264814 -0.0731710345
v -0.807808518 -0.313860953 0.0802125111
v -0.802885115 -0.303805679 0.0907540172
v -0.820115507 -0.303655773 0.0825717822
v -0.813785076 0.3387236 -0.0809121057
v -0.826248884 0.335142374 -0.0703676715
v -0.813344657 0.346177608 -0.0708009154
v -0.837948442 0.285742253 0.0918245837
v -0.836901248 0.299415112 0.0817359462
v -0.846889198 0.288317263 0.0814087689
v 0.774148583 -0.265323043 -0.087045148
v 0.789439797 -0.265720457 -0.0774687454
v 0.775776744 -0.276264638 -0.0765376166
v 0.850609839 -0.270429522 0.0829938352
v 0.844677687 -0.280706227 0.0722870529
v 0.856739223 -0.269933134 0.0733562708
v 0.918673217 0.33702305 -0.0848551765
v 0.916543663 0.346446216 -0.074300766
v 0.925631881 0.336051404 -0.0749413967
v 0.851132572 0.317502469 0.0926936865
v 0.865585029 0.318730414 0.0828878433
v 0.854510665 0.329197764 0.0823571831
vn -0.450037688 -0.321457773 -0.833145261
vn -0.324157476 -0.930175245 -0.172324792
vn -0.928558052 -0.34985584 -0.124019422
vn -0.19792068 -0.890577018 0.409511894
vn -0.218577638 -0.374270201 0.901191235
vn -0.707849145 -0.348164886 0.614598095
vn -0.33280623 0.444946408 -0.831422091
vn -0.876154244 0.443943501 -0.187797427
vn -0.313432127 0.925034165 -0.214644104
vn -0.312809974 0.262733102 0.912754714
vn -0.357085526 0.815668881 0.455163896
vn -0.800167918 0.315958947 0.509805143
vn 0.252516001 -0.3699359 -0.894082308
vn 0.76860261 -0.433923036 -0.470064789
vn 0.246540964 -0.865045726 -0.436936587
vn 0.388983607 -0.377622634 0.840293407
vn 0.341906846 -0.918749928 0.197479382
vn 0.874935329 -0.415724218 0.248317331
vn 0.39104417 0.335983872 -0.856854379
vn 0.388512641 0.91158843 -0.134404406
vn 0.922338426 0.274951398 -0.271465361
vn 0.2887142 0.296687007 0.910286188
vn 0.843132079 0.278323829 0.460069746
vn 0.274720758 0.806957304 0.522827387
f 1//1 2//2 3//3
f 4//4 5//5 6//6
f 7//7 8//8 9//9
f 10//10 11//11 12//12
f 13//13 14//14 15//15
f 16//16 17//17 18//18
f 19//19 20//20 21//21
f 22//22 23//23 24//24
f 7//7 1//1 3//3
f 7//7 3//3 8//8
f 2//2 4//4 6//6
f 2//2 6//6 3//3
f 5//5 10//10 12//12
f 5//5 12//12 6//6
f 11//11 9//9 8//8
f 11//11 8//8 12//12
f 19//19 7//7 9//9
f 19//19 9//9 20//20
f 10//10 22//22 24//24
f 10//10 24//24 11//11
f 23//23 21//21 20//20
f 23//23 20//20 24//24
f 13//13 19//19 21//21
f 13//13 21//21 14//14
f 22//22 16//16 18//18
f 22//22 18//18 23//23
f 17//17 15//15 14//14
f 17//17 14//14 18//18
f 1//1 13//13 15//15
f 1//1 15//15 2//2
f 16//16 5//5 4//4
f 16//16 4//4 17//17
f 7//7 19//19 13//13
f 7//7 13//13 1//1
f 3//3 6//6 12//12
f 3//3 12//12 8//8
f 15//15 17//17 4//4
f 15//15 4//4 2//2
f 22//22 10//10 5//5
f 22//22 5//5 16//16
f 9//9 11//11 24//24
f 9//9 24//24 20//20
f 21//21 23//23 18//18
f 21//21 18//18 14//14
