o PULSO_RAGDOLL_B_DEBRIS_PRIMARY_SLAB
v -0.90680021 -0.300726533 -0.0818328932
v -0.909429669 -0.31347087 -0.0673319846
v -0.924407125 -0.29896301 -0.067540586
v -0.939948559 -0.294476062 0.0806472301
v -0.942299485 -0.277932018 0.0952333137
v -0.954006374 -0.279582977 0.080937244
v -0.909716725 0.242253318 -0.0817160606
v -0.924002886 0.24468632 -0.0670114011
v -0.909448385 0.260128766 -0.0674199536
v -0.906345904 0.282111764 0.0971425101
v -0.905782044 0.293537974 0.0829081759
v -0.921402931 0.278446227 0.0825903565
v 0.926210284 -0.271115065 -0.0752099007
v 0.93247211 -0.272706062 -0.0633291677
v 0.914648473 -0.287909091 -0.0604012795
v 0.808823168 -0.295154691 0.0912441164
v 0.815863073 -0.307634771 0.0769186243
v 0.83203882 -0.293422133 0.0793061033
v 0.845356464 0.302988529 -0.0886578858
v 0.840391397 0.31585449 -0.0744316056
v 0.857390046 0.301801354 -0.0743266568
v 0.810910046 0.283073306 0.084790729
v 0.828249037 0.28465414 0.0702658743
v 0.813412786 0.29942742 0.0700595304
vn -0.302831411 -0.35816291 -0.883183122
vn -0.316292316 -0.87783736 -0.35966748
vn -0.851401508 -0.343825459 -0.396105558
vn -0.367614806 -0.873168468 0.320056379
vn -0.381371707 -0.314749449 0.869188368
vn -0.905139327 -0.310794681 0.290050983
vn -0.33835426 0.298108459 -0.892551243
vn -0.850663185 0.315470904 -0.420535594
vn -0.355467826 0.838580012 -0.412826866
vn -0.34680301 0.38868627 0.853610337
vn -0.34280169 0.897865355 0.276269794
vn -0.890464723 0.379096508 0.25171116
vn 0.47392419 -0.327025503 -0.817587972
vn 0.93775022 -0.338128746 -0.0793317035
vn 0.35802722 -0.913980663 -0.190933898
vn 0.224105686 -0.35352695 0.908182383
vn 0.237469837 -0.878379345 0.414798379
vn 0.713617682 -0.338199109 0.61349088
vn 0.382969141 0.394333452 -0.835365653
vn 0.312408775 0.902416587 -0.296723872
vn 0.897919536 0.428903818 -0.0989039615
vn 0.268179685 0.332879066 0.904030502
vn 0.744632781 0.351385355 0.567494929
vn 0.300404519 0.873755395 0.382503122
f 1//1 2//2 3//3
f 4//4 5//5 6//6
f 7//7 8//8 9//9
f 10//10 11//11 12//12
f 13//13 14//14 15//15
f 16//16 17//17 18//18
f 19//19 20//20 21//21
f 22//22 23//23 24//24
f 7//7 1//1 3//3
f 7//7 3//3 8//8
f 2//2 4//4 6//6
f 2//2 6//6 3//3
f 5//5 10//10 12//12
f 5//5 12//12 6//6
f 11//11 9//9 8//8
f 11//11 8//8 12//12
f 19//19 7//7 9//9
f 19//19 9//9 20//20
f 10//10 22//22 24//24
f 10//10 24//24 11//11
f 23//23 21//21 20//20
f 23//23 20//20 24//24
f 13//13 19//19 21//21
f 13//13 21//21 14//14
f 22//22 16//16 18//18
f 22//22 18//18 23//23
f 17//17 15//15 14//14
f 17//17 14//14 18//18
f 1//1 13//13 15//15
f 1//1 15//15 2//2
f 16//16 5//5 4//4
f 16//16 4//4 17//17
f 7//7 19//19 13//13
f 7//7 13//13 1//1
f 3//3 6//6 12//12
f 3//3 12//12 8//8
f 15//15 17//17 4//4
f 15//15 4//4 2//2
f 22//22 10//10 5//5
f 22//22 5//5 16//16
f 9//9 11//11 24//24
f 9//9 24//24 20//20
f 21//21 23//23 18//18
f 21//21 18//18 14//14
