o PULSO_RAGDOLL_A_DEBRIS_CHUNK_03
v -0.082863234 -0.142274573 -0.0596778356
v -0.0835014433 -0.153466925 -0.0475555435
v -0.0953552052 -0.141010955 -0.0467317775
v -0.0873105749 -0.145693317 0.0497239567
v -0.087432608 -0.132752195 0.062265303
v -0.0990203917 -0.134106904 0.0494968593
v -0.0769224316 0.149220422 -0.0601775311
v -0.0892576128 0.148435414 -0.0473850444
v -0.0769343674 0.160267398 -0.0481511131
v -0.0803311765 0.136861861 0.0724649951
v -0.0797313973 0.149972469 0.0609340407
v -0.0920375288 0.139342308 0.0611990467
v 0.0808921978 -0.147330418 -0.0718125924
v 0.0933658779 -0.14561899 -0.0606429987
v 0.0815095082 -0.157498494 -0.0599976443
v 0.0859439299 -0.125100628 0.0710154325
v 0.0858885869 -0.139058292 0.0594972484
v 0.0975316539 -0.126398027 0.0596953183
v 0.0765381902 0.145776331 -0.0696225017
v 0.0763779506 0.15528892 -0.0577215105
v 0.0886125341 0.142650545 -0.0583182834
v 0.077055335 0.118127465 0.0635569692
v 0.0891291946 0.119075656 0.0506383553
v 0.0767161101 0.132849425 0.0513053685
vn -0.389209211 -0.352465719 -0.851048708
vn -0.365968555 -0.888915122 -0.27549395
vn -0.885095894 -0.32989186 -0.328293681
vn -0.350172967 -0.85268873 0.387686491
vn -0.353061795 -0.327291757 0.876485884
vn -0.884288907 -0.332572997 0.327762842
vn -0.370730549 0.375978023 -0.849234581
vn -0.869615197 0.373734057 -0.322633296
vn -0.312817305 0.91406399 -0.258132368
vn -0.302395761 0.317857295 0.898623109
vn -0.264212847 0.864104331 0.428386927
vn -0.859434307 0.362982035 0.36002326
vn 0.291745484 -0.372845411 -0.880835414
vn 0.877137661 -0.341779053 -0.337367147
vn 0.329640627 -0.90253824 -0.277059197
vn 0.34617579 -0.292122751 0.891530514
vn 0.348629206 -0.836176634 0.423398644
vn 0.882188261 -0.292342156 0.369161278
vn 0.313294798 0.391168058 -0.865351975
vn 0.369503975 0.898060143 -0.238652006
vn 0.880568326 0.357501686 -0.311114132
vn 0.374840468 0.299782544 0.877282739
vn 0.878189266 0.31593135 0.359125197
vn 0.403574705 0.805881202 0.433223844
f 1//1 2//2 3//3
f 4//4 5//5 6//6
f 7//7 8//8 9//9
f 10//10 11//11 12//12
f 13//13 14//14 15//15
f 16//16 17//17 18//18
f 19//19 20//20 21//21
f 22//22 23//23 24//24
f 7//7 1//1 3//3
f 7//7 3//3 8//8
f 2//2 4//4 6//6
f 2//2 6//6 3//3
f 5//5 10//10 12//12
f 5//5 12//12 6//6
f 11//11 9//9 8//8
f 11//11 8//8 12//12
f 19//19 7//7 9//9
f 19//19 9//9 20//20
f 10//10 22//22 24//24
f 10//10 24//24 11//11
f 23//23 21//21 20//20
f 23//23 20//20 24//24
f 13//13 19//19 21//21
f 13//13 21//21 14//14
f 22//22 16//16 18//18
f 22//22 18//18 23//23
f 17//17 15//15 14//14
f 17//17 14//14 18//18
f 1//1 13//13 15//15
f 1//1 15//15 2//2
f 16//16 5//5 4//4
f 16//16 4//4 17//17
f 7//7 19//19 13//13
f 7//7 13//13 1//1
f 3//3 6//6 12//12
f 3//3 12//12 8//8
f 15//15 17//17 4//4
f 15//15 4//4 2//2
f 22//22 10//10 5//5
f 22//22 5//5 16//16
f 9//9 11//11 24//24
f 9//9 24//24 20//20
f 21//21 23//23 18//18
f 21//21 18//18 14//14
