o PULSO_RAGDOLL_B_DEBRIS_CHUNK_01
v -0.0716243386 -0.0940677077 -0.108723335
v -0.072572954 -0.107080348 -0.0948360935
v -0.0864057466 -0.0933022052 -0.0945457667
v -0.0808326975 -0.0952221379 0.0787659362
v -0.0811464712 -0.0801154897 0.0946690217
v -0.0943718478 -0.0797350258 0.0782996118
v -0.0677588359 0.0991854891 -0.107392356
v -0.0823330805 0.0988397449 -0.0921304375
v -0.0678945035 0.113100044 -0.0930278599
v -0.0759401917 0.0957572088 0.114710338
v -0.0749930516 0.109933846 0.102384187
v -0.089521721 0.0962002277 0.100966543
v 0.0750211254 -0.0900996104 -0.110324673
v 0.0895957574 -0.0900471881 -0.0962697268
v 0.0757243708 -0.10455516 -0.0955708027
v 0.0828976333 -0.0943643898 0.116698377
v 0.082431674 -0.108148701 0.102889292
v 0.0964007601 -0.0952691883 0.104647666
v 0.0718934909 0.100780629 -0.118106499
v 0.0721754283 0.114296369 -0.104662642
v 0.0864829719 0.100311667 -0.105132475
v 0.0804834217 0.0918895081 0.112038441
v 0.0940544009 0.0920878872 0.0974577442
v 0.0797889084 0.106563531 0.097412765
vn -0.347718358 -0.353881359 -0.868251085
vn -0.355775386 -0.875384629 -0.327300549
vn -0.879531205 -0.326159328 -0.346475124
vn -0.415727079 -0.852347076 0.317294061
vn -0.430339128 -0.355051398 0.829907656
vn -0.901686311 -0.323143601 0.287297845
vn -0.369167119 0.343215734 -0.86366576
vn -0.866627216 0.358721763 -0.346808314
vn -0.349543691 0.878758371 -0.324966133
vn -0.366421372 0.304880083 0.879081011
vn -0.32543093 0.870363533 0.369543105
vn -0.885674655 0.332668662 0.323901206
vn 0.320839167 -0.352554679 -0.879071891
vn 0.864329219 -0.340494543 -0.370133042
vn 0.330854088 -0.880597651 -0.339239568
vn 0.275981635 -0.361090541 0.890756845
vn 0.27921921 -0.895311415 0.347064912
vn 0.871360779 -0.34851864 0.345347881
vn 0.295856208 0.338844031 -0.893114686
vn 0.318256676 0.882937789 -0.345157325
vn 0.861800194 0.343712866 -0.373043895
vn 0.335378438 0.326251358 0.883788109
vn 0.87797457 0.35099262 0.325522482
vn 0.357282907 0.865975082 0.349908769
f 1//1 2//2 3//3
f 4//4 5//5 6//6
f 7//7 8//8 9//9
f 10//10 11//11 12//12
f 13//13 14//14 15//15
f 16//16 17//17 18//18
f 19//19 20//20 21//21
f 22//22 23//23 24//24
f 7//7 1//1 3//3
f 7//7 3//3 8//8
f 2//2 4//4 6//6
f 2//2 6//6 3//3
f 5//5 10//10 12//12
f 5//5 12//12 6//6
f 11//11 9//9 8//8
f 11//11 8//8 12//12
f 19//19 7//7 9//9
f 19//19 9//9 20//20
f 10//10 22//22 24//24
f 10//10 24//24 11//11
f 23//23 21//21 20//20
f 23//23 20//20 24//24
f 13//13 19//19 21//21
f 13//13 21//21 14//14
f 22//22 16//16 18//18
f 22//22 18//18 23//23
f 17//17 15//15 14//14
f 17//17 14//14 18//18
f 1//1 13//13 15//15
f 1//1 15//15 2//2
f 16//16 5//5 4//4
f 16//16 4//4 17//17
f 7//7 19//19 13//13
f 7//7 13//13 1//1
f 3//3 6//6 12//12
f 3//3 12//12 8//8
f 15//15 17//17 4//4
f 15//15 4//4 2//2
f 22//22 10//10 5//5
f 22//22 5//5 16//16
f 9//9 11//11 24//24
f 9//9 24//24 20//20
f 21//21 23//23 18//18
f 21//21 18//18 14//14
