o PULSO_RAGDOLL_B_DEBRIS_SECONDARY_SLAB
v -0.79897207 -0.232418358 -0.0830705091
v -0.794238448 -0.240378305 -0.0736290887
v -0.804712176 -0.230485514 -0.0740170702
v -0.736022532 -0.215899944 0.0546226501
v -0.731166065 -0.204195365 0.0643272996
v -0.745141327 -0.205406755 0.0551776774
v -0.773981929 0.202873766 -0.0736820921
v -0.777942479 0.204006478 -0.0656788424
v -0.763929725 0.214911461 -0.0638244152
v -0.670811236 0.232789755 0.0664795488
v -0.674332798 0.240578264 0.0568367355
v -0.686765194 0.230712965 0.0583163351
v 0.743896663 -0.225978747 -0.0853070691
v 0.749172449 -0.22721985 -0.0766473189
v 0.737889886 -0.237311929 -0.0757182837
v 0.66026926 -0.250362247 0.0759022981
v 0.663259149 -0.258655131 0.0660989359
v 0.674737751 -0.249230146 0.0672379956
v 0.725202084 0.26132676 -0.0779576451
v 0.723814547 0.270443916 -0.0679914951
v 0.734078646 0.260988086 -0.0682060719
v 0.708114564 0.249920055 0.0827942938
v 0.718967795 0.250786752 0.0731240287
v 0.71003449 0.260479957 0.0731281117
vn -0.476245999 -0.379044056 -0.793420017
vn -0.369259685 -0.911535919 -0.180968255
vn -0.949558735 -0.312876195 0.0211352743
vn -0.300381273 -0.829272032 0.471252561
vn -0.251998901 -0.293146253 0.922259092
vn -0.707168102 -0.239935681 0.665089488
vn -0.468772233 0.378470331 -0.798130929
vn -0.902772427 0.429376274 -0.0252609495
vn -0.34341675 0.909138441 -0.235652715
vn -0.215241924 0.383039653 0.89830476
vn -0.239033252 0.8989591 0.367063671
vn -0.669858158 0.420397252 0.612009943
vn 0.430810124 -0.327841014 -0.840787053
vn 0.914747357 -0.370216191 -0.161793709
vn 0.342668831 -0.905805409 -0.249187708
vn 0.230213463 -0.376388073 0.897403896
vn 0.239888117 -0.886038423 0.396723449
vn 0.749812424 -0.402201682 0.525371373
vn 0.371016949 0.373752266 -0.850091517
vn 0.32956183 0.888035059 -0.320597619
vn 0.913963318 0.363747865 -0.179884687
vn 0.287680209 0.311460257 0.905667007
vn 0.810417831 0.298276097 0.5042364
vn 0.327199638 0.871177733 0.366046011
f 1//1 2//2 3//3
f 4//4 5//5 6//6
f 7//7 8//8 9//9
f 10//10 11//11 12//12
f 13//13 14//14 15//15
f 16//16 17//17 18//18
f 19//19 20//20 21//21
f 22//22 23//23 24//24
f 7//7 1//1 3//3
f 7//7 3//3 8//8
f 2//2 4//4 6//6
f 2//2 6//6 3//3
f 5//5 10//10 12//12
f 5//5 12//12 6//6
f 11//11 9//9 8//8
f 11//11 8//8 12//12
f 19//19 7//7 9//9
f 19//19 9//9 20//20
f 10//10 22//22 24//24
f 10//10 24//24 11//11
f 23//23 21//21 20//20
f 23//23 20//20 24//24
f 13//13 19//19 21//21
f 13//13 21//21 14//14
f 22//22 16//16 18//18
f 22//22 18//18 23//23
f 17//17 15//15 14//14
f 17//17 14//14 18//18
f 1//1 13//13 15//15
f 1//1 15//15 2//2
f 16//16 5//5 4//4
f 16//16 4//4 17//17
f 7//7 19//19 13//13
f 7//7 13//13 1//1
f 3//3 6//6 12//12
f 3//3 12//12 8//8
f 15//15 17//17 4//4
f 15//15 4//4 2//2
f 22//22 10//10 5//5
f 22//22 5//5 16//16
f 9//9 11//11 24//24
f 9//9 24//24 20//20
f 21//21 23//23 18//18
f 21//21 18//18 14//14
