o PULSO_RAGDOLL_A_DEBRIS_CHUNK_00
v -0.156763554 -0.143071949 -0.112915061
v -0.156921238 -0.162458986 -0.0959963799
v -0.175717562 -0.145047978 -0.0958597884
v -0.169565096 -0.180249169 0.0989390314
v -0.17136468 -0.16407305 0.115978204
v -0.188018173 -0.162655458 0.0977526903
v -0.173470616 0.155860499 -0.101127572
v -0.192119062 0.156860933 -0.0824275315
v -0.175247207 0.174633309 -0.0824954584
v -0.183190614 0.166315958 0.104229756
v -0.183045194 0.183180675 0.0857759565
v -0.200170696 0.165985987 0.0851834714
v 0.158944964 -0.136519909 -0.10295026
v 0.178804517 -0.137669101 -0.0845071152
v 0.159762502 -0.155963495 -0.0842369124
v 0.183089465 -0.157168031 0.124486372
v 0.181248888 -0.173349828 0.106387153
v 0.198899463 -0.155154839 0.107189387
v 0.1761076 0.154228121 -0.116124414
v 0.177170351 0.171980336 -0.0991939381
v 0.193931147 0.154115453 -0.0991352201
v 0.177578017 0.154234067 0.129124433
v 0.195350558 0.153692171 0.112586647
v 0.177231818 0.172095388 0.111583829
vn -0.309283197 -0.324100375 -0.894037426
vn -0.297004104 -0.857286155 -0.420534164
vn -0.842099726 -0.353963822 -0.406912267
vn -0.332397878 -0.903569639 0.270321071
vn -0.376229584 -0.364565581 0.851788282
vn -0.886442304 -0.372377455 0.27487269
vn -0.345555961 0.327083021 -0.879549742
vn -0.870220244 0.314744234 -0.379015535
vn -0.34753561 0.863165677 -0.366284013
vn -0.384264022 0.35675177 0.851509988
vn -0.357512474 0.885024428 0.298188776
vn -0.900383472 0.334031314 0.278805584
vn 0.322959542 -0.341150075 -0.882787466
vn 0.845934093 -0.354608804 -0.398306459
vn 0.33660081 -0.847020924 -0.411406755
vn 0.348378003 -0.363105297 0.864168525
vn 0.359503239 -0.897192717 0.256520391
vn 0.891434491 -0.357052624 0.279030532
vn 0.327476889 0.312290549 -0.891758621
vn 0.349245369 0.863791168 -0.363170028
vn 0.874499857 0.306336433 -0.376042426
vn 0.320329309 0.348364621 0.880926251
vn 0.883027017 0.329429567 0.33427453
vn 0.340917826 0.876960218 0.338697255
f 1//1 2//2 3//3
f 4//4 5//5 6//6
f 7//7 8//8 9//9
f 10//10 11//11 12//12
f 13//13 14//14 15//15
f 16//16 17//17 18//18
f 19//19 20//20 21//21
f 22//22 23//23 24//24
f 7//7 1//1 3//3
f 7//7 3//3 8//8
f 2//2 4//4 6//6
f 2//2 6//6 3//3
f 5//5 10//10 12//12
f 5//5 12//12 6//6
f 11//11 9//9 8//8
f 11//11 8//8 12//12
f 19//19 7//7 9//9
f 19//19 9//9 20//20
f 10//10 22//22 24//24
f 10//10 24//24 11//11
f 23//23 21//21 20//20
f 23//23 20//20 24//24
f 13//13 19//19 21//21
f 13//13 21//21 14//14
f 22//22 16//16 18//18
f 22//22 18//18 23//23
f 17//17 15//15 14//14
f 17//17 14//14 18//18
f 1//1 13//13 15//15
f 1//1 15//15 2//2
f 16//16 5//5 4//4
f 16//16 4//4 17//17
f 7//7 19//19 13//13
f 7//7 13//13 1//1
f 3//3 6//6 12//12
f 3//3 12//12 8//8
f 15//15 17//17 4//4
f 15//15 4//4 2//2
f 22//22 10//10 5//5
f 22//22 5//5 16//16
f 9//9 11//11 24//24
f 9//9 24//24 20//20
f 21//21 23//23 18//18
f 21//21 18//18 14//14
