o PULSO_RAGDOLL_B_DEBRIS_CHUNK_09
v -0.0894431695 -0.124004796 -0.0737025961
v -0.0898634568 -0.134552598 -0.0624566674
v -0.101180889 -0.123833135 -0.0629725307
v -0.0989529267 -0.130815685 0.0621155798
v -0.0997567847 -0.119471543 0.0731274486
v -0.109897904 -0.119379863 0.062561892
v -0.0977347419 0.127083451 -0.0806194097
v -0.108733907 0.127488449 -0.0702924579
v -0.0981845707 0.13758795 -0.0699925572
v -0.0986638293 0.120411187 0.0744577795
v -0.0985847488 0.131865859 0.0635632798
v -0.10957142 0.121320069 0.0633942783
v 0.0877672657 -0.120530859 -0.0704308227
v 0.0992699042 -0.120972373 -0.05932438
v 0.0878232121 -0.132135972 -0.059556812
v 0.0946673602 -0.127991736 0.0672881007
v 0.093532525 -0.138264611 0.055941578
v 0.105057746 -0.127821505 0.0560229085
v 0.0980248228 0.111539438 -0.0695970282
v 0.0991756395 0.122607931 -0.0585365854
v 0.109664515 0.110799454 -0.0580436215
v 0.107761592 0.112713695 0.0763434023
v 0.117957421 0.112170108 0.0655282065
v 0.107581303 0.123515531 0.0658226386
vn -0.301067233 -0.363916278 -0.881432652
vn -0.325290293 -0.87795341 -0.351260751
vn -0.855357111 -0.365209073 -0.367405027
vn -0.353185952 -0.876954079 0.325900853
vn -0.353645176 -0.346501529 0.868833542
vn -0.883237839 -0.341074318 0.321806163
vn -0.292749614 0.336592376 -0.894987822
vn -0.865486145 0.343852788 -0.364278674
vn -0.294403851 0.893281162 -0.339669198
vn -0.33564949 0.329698235 0.882404983
vn -0.313340306 0.878084779 0.361642063
vn -0.876556098 0.342238605 0.338411182
vn 0.346063495 -0.343124062 -0.873215914
vn 0.850811422 -0.359881312 -0.38289085
vn 0.326186806 -0.87150085 -0.366181046
vn 0.348806381 -0.385766655 0.854118466
vn 0.326041043 -0.896120787 0.301105648
vn 0.874246418 -0.395256937 0.281895816
vn 0.377703011 0.315628558 -0.870470703
vn 0.398106635 0.849675834 -0.345777541
vn 0.880815744 0.292764485 -0.372092009
vn 0.373695225 0.308533818 0.874733508
vn 0.907612801 0.291147381 0.302443564
vn 0.390119702 0.856675684 0.337510496
f 1//1 2//2 3//3
f 4//4 5//5 6//6
f 7//7 8//8 9//9
f 10//10 11//11 12//12
f 13//13 14//14 15//15
f 16//16 17//17 18//18
f 19//19 20//20 21//21
f 22//22 23//23 24//24
f 7//7 1//1 3//3
f 7//7 3//3 8//8
f 2//2 4//4 6//6
f 2//2 6//6 3//3
f 5//5 10//10 12//12
f 5//5 12//12 6//6
f 11//11 9//9 8//8
f 11//11 8//8 12//12
f 19//19 7//7 9//9
f 19//19 9//9 20//20
f 10//10 22//22 24//24
f 10//10 24//24 11//11
f 23//23 21//21 20//20
f 23//23 20//20 24//24
f 13//13 19//19 21//21
f 13//13 21//21 14//14
f 22//22 16//16 18//18
f 22//22 18//18 23//23
f 17//17 15//15 14//14
f 17//17 14//14 18//18
f 1//1 13//13 15//15
f 1//1 15//15 2//2
f 16//16 5//5 4//4
f 16//16 4//4 17//17
f 7//7 19//19 13//13
f 7//7 13//13 1//1
f 3//3 6//6 12//12
f 3//3 12//12 8//8
f 15//15 17//17 4//4
f 15//15 4//4 2//2
f 22//22 10//10 5//5
f 22//22 5//5 16//16
f 9//9 11//11 24//24
f 9//9 24//24 20//20
f 21//21 23//23 18//18
f 21//21 18//18 14//14
