o PULSO_RAGDOLL_B_DEBRIS_CHUNK_06
v -0.191014618 -0.120547503 -0.105474204
v -0.189128697 -0.137268111 -0.0886595994
v -0.204960421 -0.120680392 -0.0891073421
v -0.164865553 -0.146580309 0.104779437
v -0.164399266 -0.131435439 0.119459815
v -0.182450011 -0.130313277 0.103962384
v -0.188379347 0.116534054 -0.118974708
v -0.204607978 0.11809513 -0.102954119
v -0.188474253 0.133820206 -0.10400825
v -0.190418154 0.135488614 0.100969158
v -0.191744298 0.150038138 0.083845228
v -0.20613803 0.134162724 0.0838885233
v 0.167139813 -0.133355558 -0.11557848
v 0.185403258 -0.134224534 -0.100251138
v 0.169639528 -0.149614394 -0.0992798507
v 0.199857458 -0.137856007 0.111206345
v 0.197881386 -0.153492495 0.0943008736
v 0.21351409 -0.137849525 0.0949489102
v 0.16302976 0.111978032 -0.122176126
v 0.164516687 0.129489794 -0.106719479
v 0.180819765 0.113292567 -0.106485397
v 0.192421585 0.136511534 0.127104759
v 0.206490964 0.134789869 0.112297319
v 0.189845279 0.150852263 0.112043194
vn -0.383204192 -0.358383775 -0.851302326
vn -0.372894496 -0.871505022 -0.318478614
vn -0.887148321 -0.359734088 -0.289066136
vn -0.324900955 -0.876702309 0.354728729
vn -0.321397632 -0.349232137 0.880193472
vn -0.850875795 -0.357714295 0.38477397
vn -0.351418614 0.293222696 -0.889114976
vn -0.887542427 0.30515942 -0.345175564
vn -0.33883518 0.845404685 -0.412894219
vn -0.371736348 0.356211305 0.857277989
vn -0.374649405 0.888098538 0.266306043
vn -0.887082636 0.327996373 0.324811906
vn 0.284965664 -0.355864525 -0.890030861
vn 0.835247338 -0.336373627 -0.434988081
vn 0.29960382 -0.872048438 -0.386999935
vn 0.370265841 -0.359500289 0.856541097
vn 0.350467294 -0.893571198 0.280540913
vn 0.903519392 -0.351849109 0.244652405
vn 0.301381528 0.295003235 -0.906720579
vn 0.323401302 0.840955317 -0.433826834
vn 0.831582606 0.330532372 -0.44633916
vn 0.351776749 0.371105701 0.859379888
vn 0.89995873 0.354799211 0.253360987
vn 0.331015587 0.9060238 0.26372236
f 1//1 2//2 3//3
f 4//4 5//5 6//6
f 7//7 8//8 9//9
f 10//10 11//11 12//12
f 13//13 14//14 15//15
f 16//16 17//17 18//18
f 19//19 20//20 21//21
f 22//22 23//23 24//24
f 7//7 1//1 3//3
f 7//7 3//3 8//8
f 2//2 4//4 6//6
f 2//2 6//6 3//3
f 5//5 10//10 12//12
f 5//5 12//12 6//6
f 11//11 9//9 8//8
f 11//11 8//8 12//12
f 19//19 7//7 9//9
f 19//19 9//9 20//20
f 10//10 22//22 24//24
f 10//10 24//24 11//11
f 23//23 21//21 20//20
f 23//23 20//20 24//24
f 13//13 19//19 21//21
f 13//13 21//21 14//14
f 22//22 16//16 18//18
f 22//22 18//18 23//23
f 17//17 15//15 14//14
f 17//17 14//14 18//18
f 1//1 13//13 15//15
f 1//1 15//15 2//2
f 16//16 5//5 4//4
f 16//16 4//4 17//17
f 7//7 19//19 13//13
f 7//7 13//13 1//1
f 3//3 6//6 12//12
f 3//3 12//12 8//8
f 15//15 17//17 4//4
f 15//15 4//4 2//2
f 22//22 10//10 5//5
f 22//22 5//5 16//16
f 9//9 11//11 24//24
f 9//9 24//24 20//20
f 21//21 23//23 18//18
f 21//21 18//18 14//14
