o PULSO_RAGDOLL_B_DEBRIS_CHUNK_08
v -0.199873686 -0.177053258 -0.120212443
v -0.200967386 -0.190832332 -0.106766999
v -0.214623481 -0.176049337 -0.105899028
v -0.202960834 -0.181315914 0.0801151246
v -0.20330596 -0.165978894 0.0951409563
v -0.217738628 -0.166377127 0.08037173
v -0.177786201 0.172638148 -0.0940949172
v -0.194701821 0.172353566 -0.0792782083
v -0.179008514 0.187581986 -0.0783399642
v -0.207980603 0.176440343 0.105425596
v -0.205630705 0.190672368 0.0912277028
v -0.220296204 0.176334068 0.0914254189
v 0.185111269 -0.180885822 -0.111091688
v 0.200326264 -0.180594549 -0.096132338
v 0.185105279 -0.195034191 -0.0968055651
v 0.194274023 -0.174589187 0.0987096429
v 0.192925945 -0.189583912 0.0843558758
v 0.208229274 -0.175333649 0.084301278
v 0.200586602 0.189341396 -0.102447875
v 0.202012494 0.202407196 -0.0876535326
v 0.215972632 0.188429132 -0.0882720649
v 0.210873395 0.169253498 0.0938535705
v 0.224679798 0.170472816 0.0788444728
v 0.210813656 0.185381904 0.0791387856
vn -0.335331649 -0.299332201 -0.893282115
vn -0.358865291 -0.870740652 -0.336193979
vn -0.877739131 -0.297930837 -0.375248194
vn -0.357094437 -0.861585319 0.360769212
vn -0.353465676 -0.343018532 0.870287418
vn -0.890374124 -0.330956668 0.312572598
vn -0.320531666 0.387258947 -0.864459336
vn -0.836279333 0.373646766 -0.4012793
vn -0.329230279 0.879590273 -0.343406886
vn -0.358360112 0.33468312 0.871530354
vn -0.343627781 0.882468641 0.321199477
vn -0.893585026 0.352885813 0.277447909
vn 0.331943303 -0.334362298 -0.882051945
vn 0.856117547 -0.368485957 -0.362327129
vn 0.32580471 -0.885098994 -0.332341671
vn 0.343122393 -0.348525077 0.872237027
vn 0.319397211 -0.878340185 0.355674088
vn 0.8721053 -0.370416522 0.319724858
vn 0.318197459 0.375977635 -0.870282233
vn 0.32936725 0.891362846 -0.311431289
vn 0.874634683 0.334640115 -0.350756735
vn 0.371501327 0.311273187 0.874697506
vn 0.89480716 0.303240061 0.327666909
vn 0.363179475 0.856418192 0.366944849
f 1//1 2//2 3//3
f 4//4 5//5 6//6
f 7//7 8//8 9//9
f 10//10 11//11 12//12
f 13//13 14//14 15//15
f 16//16 17//17 18//18
f 19//19 20//20 21//21
f 22//22 23//23 24//24
f 7//7 1//1 3//3
f 7//7 3//3 8//8
f 2//2 4//4 6//6
f 2//2 6//6 3//3
f 5//5 10//10 12//12
f 5//5 12//12 6//6
f 11//11 9//9 8//8
f 11//11 8//8 12//12
f 19//19 7//7 9//9
f 19//19 9//9 20//20
f 10//10 22//22 24//24
f 10//10 24//24 11//11
f 23//23 21//21 20//20
f 23//23 20//20 24//24
f 13//13 19//19 21//21
f 13//13 21//21 14//14
f 22//22 16//16 18//18
f 22//22 18//18 23//23
f 17//17 15//15 14//14
f 17//17 14//14 18//18
f 1//1 13//13 15//15
f 1//1 15//15 2//2
f 16//16 5//5 4//4
f 16//16 4//4 17//17
f 7//7 19//19 13//13
f 7//7 13//13 1//1
f 3//3 6//6 12//12
f 3//3 12//12 8//8
f 15//15 17//17 4//4
f 15//15 4//4 2//2
f 22//22 10//10 5//5
f 22//22 5//5 16//16
f 9//9 11//11 24//24
f 9//9 24//24 20//20
f 21//21 23//23 18//18
f 21//21 18//18 14//14
