o PULSO_RAGDOLL_A_DEBRIS_CHUNK_05
v -0.113995254 -0.201894581 -0.0610273518
v -0.114588909 -0.208608404 -0.0536392257
v -0.122706279 -0.200682491 -0.0536743663
v -0.128428861 -0.19645068 0.0468438789
v -0.12928389 -0.187854454 0.0545628704
v -0.135864928 -0.188149884 0.0470357984
v -0.136931658 0.208148435 -0.0524527095
v -0.143147543 0.206771672 -0.0447018929
v -0.135857746 0.214262143 -0.0448367521
v -0.115949243 0.185404167 0.0601757765
v -0.117033519 0.194613263 0.0528402589
v -0.125052229 0.186542884 0.0528262742
v 0.137237012 -0.208511785 -0.0531341694
v 0.143615112 -0.208661288 -0.0453495793
v 0.13631928 -0.216086894 -0.045376692
v 0.119716085 -0.207020834 0.0527732559
v 0.120910041 -0.214756876 0.0450548045
v 0.128643155 -0.207707718 0.0451849923
v 0.114603512 0.198854655 -0.0608528517
v 0.114612617 0.20630157 -0.0533783808
v 0.122671865 0.198379934 -0.0534802079
v 0.120414108 0.194983959 0.0563758202
v 0.127652258 0.195512593 0.0486208238
v 0.120025128 0.202846795 0.0488090031
vn -0.32513696 -0.365799069 -0.872053325
vn -0.344624102 -0.880883276 -0.324467212
vn -0.871418655 -0.353756368 -0.339832336
vn -0.390450776 -0.849435329 0.35497582
vn -0.362280786 -0.31526801 0.877130926
vn -0.881059647 -0.318201423 0.349974006
vn -0.376934439 0.379293263 -0.845018983
vn -0.907258868 0.348831654 -0.234942511
vn -0.364857197 0.909605324 -0.198739454
vn -0.309561521 0.297384053 0.903180182
vn -0.310550362 0.821683288 0.477906883
vn -0.843537688 0.304071307 0.442701757
vn 0.373439342 -0.346716285 -0.860424817
vn 0.89879179 -0.338432223 -0.278634399
vn 0.344742864 -0.899375141 -0.268843353
vn 0.30132401 -0.345125973 0.888871193
vn 0.283302009 -0.869386137 0.404855251
vn 0.847201228 -0.344626963 0.404329538
vn 0.339279264 0.363254249 -0.867718875
vn 0.330782086 0.893232226 -0.304498523
vn 0.872787774 0.360015512 -0.329591095
vn 0.336378396 0.317633986 0.886542916
vn 0.864660144 0.352196962 0.358217925
vn 0.338785976 0.858740032 0.384434223
f 1//1 2//2 3//3
f 4//4 5//5 6//6
f 7//7 8//8 9//9
f 10//10 11//11 12//12
f 13//13 14//14 15//15
f 16//16 17//17 18//18
f 19//19 20//20 21//21
f 22//22 23//23 24//24
f 7//7 1//1 3//3
f 7//7 3//3 8//8
f 2//2 4//4 6//6
f 2//2 6//6 3//3
f 5//5 10//10 12//12
f 5//5 12//12 6//6
f 11//11 9//9 8//8
f 11//11 8//8 12//12
f 19//19 7//7 9//9
f 19//19 9//9 20//20
f 10//10 22//22 24//24
f 10//10 24//24 11//11
f 23//23 21//21 20//20
f 23//23 20//20 24//24
f 13//13 19//19 21//21
f 13//13 21//21 14//14
f 22//22 16//16 18//18
f 22//22 18//18 23//23
f 17//17 15//15 14//14
f 17//17 14//14 18//18
f 1//1 13//13 15//15
f 1//1 15//15 2//2
f 16//16 5//5 4//4
f 16//16 4//4 17//17
f 7//7 19//19 13//13
f 7//7 13//13 1//1
f 3//3 6//6 12//12
f 3//3 12//12 8//8
f 15//15 17//17 4//4
f 15//15 4//4 2//2
f 22//22 10//10 5//5
f 22//22 5//5 16//16
f 9//9 11//11 24//24
f 9//9 24//24 20//20
f 21//21 23//23 18//18
f 21//21 18//18 14//14
