o VIS_DYN_DEB_BRICK_02
v -0.0865755081 0.0455541611 -0.0274999999
v -0.0908838063 0.0421353057 -0.0219999999
v -0.0899943635 0.0498624593 -0.0219999999
v -0.0908838063 0.0421353057 0.0219999999
v -0.0865755081 0.0455541611 0.0274999999
v -0.0899943635 0.0498624593 0.0219999999
v -0.024692677 0.094661355 -0.0274999999
v -0.0281115323 0.0989696532 -0.0219999999
v -0.0203843787 0.0980802104 -0.0219999999
v -0.024692677 0.094661355 0.0274999999
v -0.0203843787 0.0980802104 0.0219999999
v -0.0281115323 0.0989696532 0.0219999999
v 0.024692677 -0.094661355 -0.0274999999
v 0.0281115323 -0.0989696532 -0.0219999999
v 0.0203843787 -0.0980802104 -0.0219999999
v 0.024692677 -0.094661355 0.0274999999
v 0.0203843787 -0.0980802104 0.0219999999
v 0.0281115323 -0.0989696532 0.0219999999
v 0.0865755081 -0.0455541611 -0.0274999999
v 0.0908838063 -0.0421353057 -0.0219999999
v 0.0899943635 -0.0498624593 -0.0219999999
v 0.0865755081 -0.0455541611 0.0274999999
v 0.0899943635 -0.0498624593 0.0219999999
v 0.0908838063 -0.0421353057 0.0219999999
vt 0 0.730142067
vt 0.1 0.712869826
vt 0.1 0.751907821
vt 0.9 0.712869826
vt 1 0.730142067
vt 0.9 0.751907821
vt 0 0.364152493
vt 0.1 0.345343558
vt 0.1 0.387854726
vt 1 0.364152493
vt 0.9 0.387854726
vt 0.9 0.345343558
vt 0.635847507 0
vt 0.654656442 0.1
vt 0.612145274 0.1
vt 0.635847507 1
vt 0.612145274 0.9
vt 0.654656442 0.9
vt 0.269857933 0
vt 0.287130174 0.1
vt 0.248092179 0.1
vt 0.269857933 1
vt 0.248092179 0.9
vt 0.287130174 0.9
vt 0.978234246 0.364152493
vt 0.730142067 0.0237022326
vt 0.751907821 0.00489329671
vt 0.978234246 0.364152493
vt 0.751907821 0.00489329671
vt 1 0.345343558
vt 0.1 0.712869826
vt 0.9 0.712869826
vt 0.9 0.751907821
vt 0.1 0.712869826
vt 0.9 0.751907821
vt 0.1 0.751907821
vt 0.0237022326 0.730142067
vt 0.364152493 0.978234246
vt 0.345343558 1
vt 0.0237022326 0.730142067
vt 0.345343558 1
vt 0.00489329671 0.751907821
vt 0.9 0.387854726
vt 0.1 0.387854726
vt 0.1 0.345343558
vt 0.9 0.387854726
vt 0.1 0.345343558
vt 0.9 0.345343558
vt 0.269857933 0.976297767
vt 0.978234246 0.364152493
vt 0.995506487 0.387854726
vt 0.269857933 0.976297767
vt 0.995506487 0.387854726
vt 0.287130174 1
vt 0.364152493 0.978234246
vt 0.976297767 0.269857933
vt 1 0.287130174
vt 0.364152493 0.978234246
vt 1 0.287130174
vt 0.387854726 0.995506487
vt 0.248092179 0.9
vt 0.248092179 0.1
vt 0.287130174 0.1
vt 0.248092179 0.9
vt 0.287130174 0.1
vt 0.287130174 0.9
vt 0.0217657539 0.635847507
vt 0.269857933 0.976297767
vt 0.248092179 0.995106703
vt 0.0217657539 0.635847507
vt 0.248092179 0.995106703
vt 0 0.654656442
vt 0.976297767 0.269857933
vt 0.635847507 0.0217657539
vt 0.654656442 0
vt 0.976297767 0.269857933
vt 0.654656442 0
vt 0.995106703 0.248092179
vt 0.612145274 0.9
vt 0.612145274 0.1
vt 0.654656442 0.1
vt 0.612145274 0.9
vt 0.654656442 0.1
vt 0.654656442 0.9
vt 0.730142067 0.0237022326
vt 0.0217657539 0.635847507
vt 0.00449351307 0.612145274
vt 0.730142067 0.0237022326
vt 0.00449351307 0.612145274
vt 0.712869826 0
vt 0.635847507 0.0217657539
vt 0.0237022326 0.730142067
vt 0 0.712869826
vt 0.635847507 0.0217657539
vt 0 0.712869826
vt 0.612145274 0.00449351307
vt 0.978234246 0.364152493
vt 0.269857933 0.976297767
vt 0.0217657539 0.635847507
vt 0.978234246 0.364152493
vt 0.0217657539 0.635847507
vt 0.730142067 0.0237022326
vt 0.1 0.00489329671
vt 0.9 0.00489329671
vt 0.9 0.345343558
vt 0.1 0.00489329671
vt 0.9 0.345343558
vt 0.1 0.345343558
vt 0.1 0.00449351307
vt 0.9 0.00449351307
vt 0.9 0.712869826
vt 0.1 0.00449351307
vt 0.9 0.712869826
vt 0.1 0.712869826
vt 0.976297767 0.269857933
vt 0.364152493 0.978234246
vt 0.0237022326 0.730142067
vt 0.976297767 0.269857933
vt 0.0237022326 0.730142067
vt 0.635847507 0.0217657539
vt 0.995506487 0.1
vt 0.995506487 0.9
vt 0.287130174 0.9
vt 0.995506487 0.1
vt 0.287130174 0.9
vt 0.287130174 0.1
vt 0.995106703 0.1
vt 0.995106703 0.9
vt 0.654656442 0.9
vt 0.995106703 0.1
vt 0.654656442 0.9
vt 0.654656442 0.1
vn -0.479905337 0.0552398749 -0.875579476
vn -0.898197353 -0.276696652 -0.34158498
vn -0.811841846 0.473531812 -0.341585189
vn -0.898197353 -0.276696652 0.34158507
vn -0.479905277 0.0552398749 0.875579476
vn -0.811841846 0.473531783 0.341585189
vn 0.0552401245 0.479905486 -0.875579298
vn -0.276696146 0.898197651 -0.341584951
vn 0.473532259 0.811841726 -0.341584891
vn 0.0552400947 0.479905516 0.875579417
vn 0.4735322 0.811841726 0.341584951
vn -0.276696146 0.898197651 0.341584951
vn -0.0552401245 -0.479905486 -0.875579298
vn 0.276696146 -0.898197651 -0.341584951
vn -0.473532259 -0.811841726 -0.341584891
vn -0.0552400947 -0.479905516 0.875579417
vn -0.4735322 -0.811841726 0.341584951
vn 0.276696146 -0.898197651 0.341584951
vn 0.479905277 -0.0552398749 -0.875579476
vn 0.898197353 0.276696652 -0.34158498
vn 0.811841846 -0.473531783 -0.341585159
vn 0.479905277 -0.0552398749 0.875579476
vn 0.811841846 -0.473531783 0.341585159
vn 0.898197353 0.276696652 0.34158501
f 1/1/1 2/2/2 3/3/3
f 4/4/4 5/5/5 6/6/6
f 7/7/7 8/8/8 9/9/9
f 10/10/10 11/11/11 12/12/12
f 13/13/13 14/14/14 15/15/15
f 16/16/16 17/17/17 18/18/18
f 19/19/19 20/20/20 21/21/21
f 22/22/22 23/23/23 24/24/24
f 7/25/7 1/26/1 3/27/3
f 7/28/7 3/29/3 8/30/8
f 2/31/2 4/32/4 6/33/6
f 2/34/2 6/35/6 3/36/3
f 5/37/5 10/38/10 12/39/12
f 5/40/5 12/41/12 6/42/6
f 11/43/11 9/44/9 8/45/8
f 11/46/11 8/47/8 12/48/12
f 19/49/19 7/50/7 9/51/9
f 19/52/19 9/53/9 20/54/20
f 10/55/10 22/56/22 24/57/24
f 10/58/10 24/59/24 11/60/11
f 23/61/23 21/62/21 20/63/20
f 23/64/23 20/65/20 24/66/24
f 13/67/13 19/68/19 21/69/21
f 13/70/13 21/71/21 14/72/14
f 22/73/22 16/74/16 18/75/18
f 22/76/22 18/77/18 23/78/23
f 17/79/17 15/80/15 14/81/14
f 17/82/17 14/83/14 18/84/18
f 1/85/1 13/86/13 15/87/15
f 1/88/1 15/89/15 2/90/2
f 16/91/16 5/92/5 4/93/4
f 16/94/16 4/95/4 17/96/17
f 7/97/7 19/98/19 13/99/13
f 7/100/7 13/101/13 1/102/1
f 3/103/3 6/104/6 12/105/12
f 3/106/3 12/107/12 8/108/8
f 15/109/15 17/110/17 4/111/4
f 15/112/15 4/113/4 2/114/2
f 22/115/22 10/116/10 5/117/5
f 22/118/22 5/119/5 16/120/16
f 9/121/9 11/122/11 24/123/24
f 9/124/9 24/125/24 20/126/20
f 21/127/21 23/128/23 18/129/18
f 21/130/21 18/131/18 14/132/14
