o VIS_DYN_DEB_BRICK_04
v -0.0825922117 -0.0524311736 -0.0274999999
v -0.0817703009 -0.057869412 -0.0219999999
v -0.08803045 -0.0532530807 -0.0219999999
v -0.0817703009 -0.057869412 0.0219999999
v -0.0825922117 -0.0524311699 0.0274999999
v -0.08803045 -0.0532530807 0.0219999999
v -0.0943978205 0.0256817453 -0.0274999999
v -0.0998360589 0.0248598363 -0.0219999999
v -0.0952197313 0.0311199855 -0.0219999999
v -0.0943978205 0.0256817453 0.0274999999
v -0.0952197313 0.0311199855 0.0219999999
v -0.0998360589 0.0248598363 0.0219999999
v 0.0943978205 -0.0256817453 -0.0274999999
v 0.0998360589 -0.0248598363 -0.0219999999
v 0.0952197313 -0.0311199855 -0.0219999999
v 0.0943978205 -0.0256817453 0.0274999999
v 0.0952197313 -0.0311199855 0.0219999999
v 0.0998360589 -0.0248598363 0.0219999999
v 0.0825922117 0.0524311736 -0.0274999999
v 0.0817703009 0.057869412 -0.0219999999
v 0.08803045 0.0532530807 -0.0219999999
v 0.0825922117 0.0524311699 0.0274999999
v 0.08803045 0.0532530807 0.0219999999
v 0.0817703009 0.057869412 0.0219999999
vt 0.0863608171 0
vt 0.0904771194 0.1
vt 0.0591249745 0.1
vt 0.0904771194 0.9
vt 0.0863608171 1
vt 0.0591249745 0.9
vt 0 0.721893954
vt 0.1 0.714792543
vt 0.1 0.768881128
vt 1 0.721893954
vt 0.9 0.768881128
vt 0.9 0.714792543
vt 0.278106046 0
vt 0.285207457 0.1
vt 0.231118872 0.1
vt 0.278106046 1
vt 0.231118872 0.9
vt 0.285207457 0.9
vt 0 0.913639183
vt 0.1 0.909522881
vt 0.1 0.940875026
vt 1 0.913639183
vt 0.9 0.940875026
vt 0.9 0.909522881
vt 0.721893954 0.0272358426
vt 0.0469871578 0.0863608171
vt 0.039885763 0.0591249745
vt 0.721893954 0.0272358426
vt 0.039885763 0.0591249745
vt 0.714792543 0
vt 0.0904771194 0.1
vt 0.0904771194 0.9
vt 0.0591249745 0.9
vt 0.0904771194 0.1
vt 0.0591249745 0.9
vt 0.0591249745 0.1
vt 0.0863608171 0.0469871899
vt 0.0272358426 0.721893954
vt 0 0.714792543
vt 0.0863608171 0.0469871899
vt 0 0.714792543
vt 0.0591249745 0.039885763
vt 0.9 0.768881128
vt 0.1 0.768881128
vt 0.1 0.714792543
vt 0.9 0.768881128
vt 0.1 0.714792543
vt 0.9 0.714792543
vt 0.953012842 0.913639183
vt 0.721893954 0.0272358426
vt 0.768881128 0.0231195403
vt 0.953012842 0.913639183
vt 0.768881128 0.0231195403
vt 1 0.909522881
vt 0.0272358426 0.721893954
vt 0.913639183 0.95301281
vt 0.909522881 1
vt 0.0272358426 0.721893954
vt 0.909522881 1
vt 0.0231195403 0.768881128
vt 0.9 0.940875026
vt 0.1 0.940875026
vt 0.1 0.909522881
vt 0.9 0.940875026
vt 0.1 0.909522881
vt 0.9 0.909522881
vt 0.278106046 0.972764157
vt 0.953012842 0.913639183
vt 0.960114237 0.940875026
vt 0.278106046 0.972764157
vt 0.960114237 0.940875026
vt 0.285207457 1
vt 0.913639183 0.95301281
vt 0.972764157 0.278106046
vt 1 0.285207457
vt 0.913639183 0.95301281
vt 1 0.285207457
vt 0.940875026 0.960114237
vt 0.231118872 0.9
vt 0.231118872 0.1
vt 0.285207457 0.1
vt 0.231118872 0.9
vt 0.285207457 0.1
vt 0.285207457 0.9
vt 0.0469871578 0.0863608171
vt 0.278106046 0.972764157
vt 0.231118872 0.97688046
vt 0.0469871578 0.0863608171
vt 0.231118872 0.97688046
vt 0 0.0904771194
vt 0.972764157 0.278106046
vt 0.0863608171 0.0469871899
vt 0.0904771194 0
vt 0.972764157 0.278106046
vt 0.0904771194 0
vt 0.97688046 0.231118872
vt 0.721893954 0.0272358426
vt 0.953012842 0.913639183
vt 0.278106046 0.972764157
vt 0.721893954 0.0272358426
vt 0.278106046 0.972764157
vt 0.0469871578 0.0863608171
vt 0.1 0.039885763
vt 0.9 0.039885763
vt 0.9 0.714792543
vt 0.1 0.039885763
vt 0.9 0.714792543
vt 0.1 0.714792543
vt 0.97688046 0.1
vt 0.97688046 0.9
vt 0.0904771194 0.9
vt 0.97688046 0.1
vt 0.0904771194 0.9
vt 0.0904771194 0.1
vt 0.913639183 0.95301281
vt 0.0272358426 0.721893954
vt 0.0863608171 0.0469871899
vt 0.913639183 0.95301281
vt 0.0863608171 0.0469871899
vt 0.972764157 0.278106046
vt 0.1 0.0231195403
vt 0.9 0.0231195403
vt 0.9 0.909522881
vt 0.1 0.0231195403
vt 0.9 0.909522881
vt 0.1 0.909522881
vt 0.960114237 0.1
vt 0.960114237 0.9
vt 0.285207457 0.9
vt 0.960114237 0.1
vt 0.285207457 0.9
vt 0.285207457 0.1
vn -0.286703765 -0.388795227 -0.875579357
vn -0.206904575 -0.916793406 -0.34158498
vn -0.814701915 -0.468594164 -0.341584861
vn -0.206904575 -0.916793406 0.34158498
vn -0.286703795 -0.388795197 0.875579357
vn -0.814701915 -0.468594313 0.341584921
vn -0.388795197 0.286703557 -0.875579417
vn -0.916793406 0.206904322 -0.341584951
vn -0.468594551 0.814701736 -0.34158501
vn -0.388795167 0.286703587 0.875579417
vn -0.468594491 0.814701736 0.34158504
vn -0.916793525 0.206904367 0.34158501
vn 0.388795197 -0.286703557 -0.875579417
vn 0.916793406 -0.206904322 -0.341584951
vn 0.468594551 -0.814701736 -0.34158501
vn 0.388795167 -0.286703587 0.875579417
vn 0.468594491 -0.814701736 0.34158504
vn 0.916793525 -0.206904367 0.34158501
vn 0.286703765 0.388795227 -0.875579357
vn 0.206904575 0.916793406 -0.34158498
vn 0.814701915 0.468594164 -0.341584861
vn 0.286703795 0.388795197 0.875579357
vn 0.814701915 0.468594313 0.341584921
vn 0.206904575 0.916793406 0.341584951
f 1/1/1 2/2/2 3/3/3
f 4/4/4 5/5/5 6/6/6
f 7/7/7 8/8/8 9/9/9
f 10/10/10 11/11/11 12/12/12
f 13/13/13 14/14/14 15/15/15
f 16/16/16 17/17/17 18/18/18
f 19/19/19 20/20/20 21/21/21
f 22/22/22 23/23/23 24/24/24
f 7/25/7 1/26/1 3/27/3
f 7/28/7 3/29/3 8/30/8
f 2/31/2 4/32/4 6/33/6
f 2/34/2 6/35/6 3/36/3
f 5/37/5 10/38/10 12/39/12
f 5/40/5 12/41/12 6/42/6
f 11/43/11 9/44/9 8/45/8
f 11/46/11 8/47/8 12/48/12
f 19/49/19 7/50/7 9/51/9
f 19/52/19 9/53/9 20/54/20
f 10/55/10 22/56/22 24/57/24
f 10/58/10 24/59/24 11/60/11
f 23/61/23 21/62/21 20/63/20
f 23/64/23 20/65/20 24/66/24
f 13/67/13 19/68/19 21/69/21
f 13/70/13 21/71/21 14/72/14
f 22/73/22 16/74/16 18/75/18
f 22/76/22 18/77/18 23/78/23
f 17/79/17 15/80/15 14/81/14
f 17/82/17 14/83/14 18/84/18
f 1/85/1 13/86/13 15/87/15
f 1/88/1 15/89/15 2/90/2
f 16/91/16 5/92/5 4/93/4
f 16/94/16 4/95/4 17/96/17
f 7/97/7 19/98/19 13/99/13
f 7/100/7 13/101/13 1/102/1
f 3/103/3 6/104/6 12/105/12
f 3/106/3 12/107/12 8/108/8
f 15/109/15 17/110/17 4/111/4
f 15/112/15 4/113/4 2/114/2
f 22/115/22 10/116/10 5/117/5
f 22/118/22 5/119/5 16/120/16
f 9/121/9 11/122/11 24/123/24
f 9/124/9 24/125/24 20/126/20
f 21/127/21 23/128/23 18/129/18
f 21/130/21 18/131/18 14/132/14
