o VIS_DYN_DEB_PLANK_01
v -0.333007723 -0.298557103 -0.0140000004
v -0.32981202 -0.303033441 -0.00850000046
v -0.337484062 -0.301752806 -0.00850000046
v -0.32981202 -0.303033441 0.00850000046
v -0.333007723 -0.298557103 0.0140000004
v -0.337484062 -0.301752806 0.00850000046
v -0.390530199 -0.217983156 -0.0140000004
v -0.395006537 -0.22117883 -0.00850000046
v -0.393725902 -0.213506818 -0.00850000046
v -0.390530199 -0.217983156 0.0140000004
v -0.393725902 -0.213506818 0.00850000046
v -0.395006537 -0.22117883 0.00850000046
v 0.390530199 0.217983156 -0.0140000004
v 0.395006537 0.22117883 -0.00850000046
v 0.393725902 0.213506818 -0.00850000046
v 0.390530199 0.217983156 0.0140000004
v 0.393725902 0.213506818 0.00850000046
v 0.395006537 0.22117883 0.00850000046
v 0.333007723 0.298557103 -0.0140000004
v 0.32981202 0.303033441 -0.00850000046
v 0.337484062 0.301752806 -0.00850000046
v 0.333007723 0.298557103 0.0140000004
v 0.337484062 0.301752806 0.00850000046
v 0.32981202 0.303033441 0.00850000046
vt 0.078478213 0
vt 0.0825233397 0.196428564
vt 0.0728120553 0.196428564
vt 0.0825233397 0.803571436
vt 0.078478213 1
vt 0.0728120553 0.803571436
vt 0 0.140331517
vt 0.196428564 0.13505871
vt 0.196428564 0.147717399
vt 1 0.140331517
vt 0.803571436 0.147717399
vt 0.803571436 0.13505871
vt 0.859668483 0
vt 0.86494129 0.196428564
vt 0.852282601 0.196428564
vt 0.859668483 1
vt 0.852282601 0.803571436
vt 0.86494129 0.803571436
vt 0 0.921521787
vt 0.196428564 0.91747666
vt 0.196428564 0.927187945
vt 1 0.921521787
vt 0.803571436 0.927187945
vt 0.803571436 0.91747666
vt 0.140331517 0.00566615765
vt 0.00738588224 0.078478213
vt 0.00211302685 0.0728120553
vt 0.140331517 0.00566615765
vt 0.00211302685 0.0728120553
vt 0.13505871 0
vt 0.0825233397 0.196428564
vt 0.0825233397 0.803571436
vt 0.0728120553 0.803571436
vt 0.0825233397 0.196428564
vt 0.0728120553 0.803571436
vt 0.0728120553 0.196428564
vt 0.078478213 0.00738588224
vt 0.00566615765 0.140331517
vt 0 0.13505871
vt 0.078478213 0.00738588224
vt 0 0.13505871
vt 0.0728120553 0.00211302685
vt 0.803571436 0.147717399
vt 0.196428564 0.147717399
vt 0.196428564 0.13505871
vt 0.803571436 0.147717399
vt 0.196428564 0.13505871
vt 0.803571436 0.13505871
vt 0.992614118 0.921521787
vt 0.140331517 0.00566615765
vt 0.147717399 0.00162103089
vt 0.992614118 0.921521787
vt 0.147717399 0.00162103089
vt 1 0.91747666
vt 0.00566615765 0.140331517
vt 0.921521787 0.992614118
vt 0.91747666 1
vt 0.00566615765 0.140331517
vt 0.91747666 1
vt 0.00162103089 0.147717399
vt 0.803571436 0.927187945
vt 0.196428564 0.927187945
vt 0.196428564 0.91747666
vt 0.803571436 0.927187945
vt 0.196428564 0.91747666
vt 0.803571436 0.91747666
vt 0.859668483 0.994333842
vt 0.992614118 0.921521787
vt 0.997886973 0.927187945
vt 0.859668483 0.994333842
vt 0.997886973 0.927187945
vt 0.86494129 1
vt 0.921521787 0.992614118
vt 0.994333842 0.859668483
vt 1 0.86494129
vt 0.921521787 0.992614118
vt 1 0.86494129
vt 0.927187945 0.997886973
vt 0.852282601 0.803571436
vt 0.852282601 0.196428564
vt 0.86494129 0.196428564
vt 0.852282601 0.803571436
vt 0.86494129 0.196428564
vt 0.86494129 0.803571436
vt 0.00738588224 0.078478213
vt 0.859668483 0.994333842
vt 0.852282601 0.998378969
vt 0.00738588224 0.078478213
vt 0.852282601 0.998378969
vt 0 0.0825233397
vt 0.994333842 0.859668483
vt 0.078478213 0.00738588224
vt 0.0825233397 0
vt 0.994333842 0.859668483
vt 0.0825233397 0
vt 0.998378969 0.852282601
vt 0.140331517 0.00566615765
vt 0.992614118 0.921521787
vt 0.859668483 0.994333842
vt 0.140331517 0.00566615765
vt 0.859668483 0.994333842
vt 0.00738588224 0.078478213
vt 0.196428564 0.00211302685
vt 0.803571436 0.00211302685
vt 0.803571436 0.13505871
vt 0.196428564 0.00211302685
vt 0.803571436 0.13505871
vt 0.196428564 0.13505871
vt 0.998378969 0.196428564
vt 0.998378969 0.803571436
vt 0.0825233397 0.803571436
vt 0.998378969 0.196428564
vt 0.0825233397 0.803571436
vt 0.0825233397 0.196428564
vt 0.921521787 0.992614118
vt 0.00566615765 0.140331517
vt 0.078478213 0.00738588224
vt 0.921521787 0.992614118
vt 0.078478213 0.00738588224
vt 0.994333842 0.859668483
vt 0.196428564 0.00162103089
vt 0.803571436 0.00162103089
vt 0.803571436 0.91747666
vt 0.196428564 0.00162103089
vt 0.803571436 0.91747666
vt 0.196428564 0.91747666
vt 0.997886973 0.196428564
vt 0.997886973 0.803571436
vt 0.86494129 0.803571436
vt 0.997886973 0.196428564
vt 0.86494129 0.803571436
vt 0.86494129 0.196428564
vn -0.0795360953 -0.476481467 -0.875579536
vn 0.230734155 -0.911087811 -0.341585577
vn -0.514142275 -0.786751211 -0.341584921
vn 0.230734274 -0.911087513 0.341586232
vn -0.0795358196 -0.476480782 0.875579894
vn -0.514142156 -0.786750853 0.341585755
vn -0.476481616 0.0795354694 -0.875579417
vn -0.911088347 -0.230733767 -0.341584563
vn -0.786751151 0.514142096 -0.341585308
vn -0.476481467 0.0795355886 0.875579536
vn -0.786751151 0.514142096 0.341585308
vn -0.911088288 -0.230733693 0.341584772
vn 0.476481616 -0.0795354694 -0.875579417
vn 0.911088347 0.230733767 -0.341584563
vn 0.786751151 -0.514142096 -0.341585308
vn 0.476481467 -0.0795355886 0.875579536
vn 0.786751151 -0.514142096 0.341585308
vn 0.911088288 0.230733693 0.341584772
vn 0.0795360953 0.476481527 -0.875579536
vn -0.230734155 0.911087811 -0.341585577
vn 0.514142334 0.78675127 -0.341584951
vn 0.0795359164 0.476481348 0.875579536
vn 0.514142096 0.786751151 0.34158507
vn -0.230734155 0.911087811 0.341585577
f 1/1/1 2/2/2 3/3/3
f 4/4/4 5/5/5 6/6/6
f 7/7/7 8/8/8 9/9/9
f 10/10/10 11/11/11 12/12/12
f 13/13/13 14/14/14 15/15/15
f 16/16/16 17/17/17 18/18/18
f 19/19/19 20/20/20 21/21/21
f 22/22/22 23/23/23 24/24/24
f 7/25/7 1/26/1 3/27/3
f 7/28/7 3/29/3 8/30/8
f 2/31/2 4/32/4 6/33/6
f 2/34/2 6/35/6 3/36/3
f 5/37/5 10/38/10 12/39/12
f 5/40/5 12/41/12 6/42/6
f 11/43/11 9/44/9 8/45/8
f 11/46/11 8/47/8 12/48/12
f 19/49/19 7/50/7 9/51/9
f 19/52/19 9/53/9 20/54/20
f 10/55/10 22/56/22 24/57/24
f 10/58/10 24/59/24 11/60/11
f 23/61/23 21/62/21 20/63/20
f 23/64/23 20/65/20 24/66/24
f 13/67/13 19/68/19 21/69/21
f 13/70/13 21/71/21 14/72/14
f 22/73/22 16/74/16 18/75/18
f 22/76/22 18/77/18 23/78/23
f 17/79/17 15/80/15 14/81/14
f 17/82/17 14/83/14 18/84/18
f 1/85/1 13/86/13 15/87/15
f 1/88/1 15/89/15 2/90/2
f 16/91/16 5/92/5 4/93/4
f 16/94/16 4/95/4 17/96/17
f 7/97/7 19/98/19 13/99/13
f 7/100/7 13/101/13 1/102/1
f 3/103/3 6/104/6 12/105/12
f 3/106/3 12/107/12 8/108/8
f 15/109/15 17/110/17 4/111/4
f 15/112/15 4/113/4 2/114/2
f 22/115/22 10/116/10 5/117/5
f 22/118/22 5/119/5 16/120/16
f 9/121/9 11/122/11 24/123/24
f 9/124/9 24/125/24 20/126/20
f 21/127/21 23/128/23 18/129/18
f 21/130/21 18/131/18 14/132/14
