o VIS_DYN_DEB_BRICK_03
v -0.000505446922 -0.0978276357 -0.0274999999
v 0.00451475289 -0.100074314 -0.0219999999
v -0.00275212945 -0.102847837 -0.0219999999
v 0.00451475289 -0.100074314 0.0219999999
v -0.000505447621 -0.0978276357 0.0274999999
v -0.00275212806 -0.102847837 0.0219999999
v -0.0726138055 -0.0655571222 -0.0274999999
v -0.0748604834 -0.070577316 -0.0219999999
v -0.0776340067 -0.0633104369 -0.0219999999
v -0.0726138055 -0.0655571148 0.0274999999
v -0.0776340067 -0.0633104369 0.0219999999
v -0.0748604834 -0.070577316 0.0219999999
v 0.0726138055 0.0655571222 -0.0274999999
v 0.0748604834 0.070577316 -0.0219999999
v 0.0776340067 0.0633104369 -0.0219999999
v 0.0726138055 0.0655571148 0.0274999999
v 0.0776340067 0.0633104369 0.0219999999
v 0.0748604834 0.070577316 0.0219999999
v 0.000505446922 0.0978276357 -0.0274999999
v -0.00451475289 0.100074314 -0.0219999999
v 0.00275212945 0.102847837 -0.0219999999
v 0.000505447621 0.0978276357 0.0274999999
v 0.00275212806 0.102847837 0.0219999999
v -0.00451475289 0.100074314 0.0219999999
vt 0.496744681 0
vt 0.52907716 0.1
vt 0.482274975 0.1
vt 0.52907716 0.9
vt 0.496744676 1
vt 0.482274984 0.9
vt 0 0.18129071
vt 0.1 0.156884782
vt 0.1 0.192213085
vt 1 0.181290746
vt 0.9 0.192213085
vt 0.9 0.156884782
vt 0.81870929 0
vt 0.843115218 0.1
vt 0.807786915 0.1
vt 0.818709254 1
vt 0.807786915 0.9
vt 0.843115218 0.9
vt 0 0.503255319
vt 0.1 0.47092284
vt 0.1 0.517725025
vt 1 0.503255324
vt 0.9 0.517725016
vt 0.9 0.47092284
vt 0.18129071 0.0323324882
vt 0.024405964 0.496744681
vt 0 0.482274975
vt 0.18129071 0.0323324882
vt 0 0.482274975
vt 0.156884782 0.017862812
vt 0.52907716 0.1
vt 0.52907716 0.9
vt 0.482274984 0.9
vt 0.52907716 0.1
vt 0.482274984 0.9
vt 0.482274975 0.1
vt 0.496744676 0.024405964
vt 0.0323324882 0.181290746
vt 0.017862812 0.156884782
vt 0.496744676 0.024405964
vt 0.017862812 0.156884782
vt 0.482274984 0
vt 0.9 0.192213085
vt 0.1 0.192213085
vt 0.1 0.156884782
vt 0.9 0.192213085
vt 0.1 0.156884782
vt 0.9 0.156884782
vt 0.975594036 0.503255319
vt 0.18129071 0.0323324882
vt 0.192213085 0
vt 0.975594036 0.503255319
vt 0.192213085 0
vt 0.986516375 0.47092284
vt 0.0323324882 0.181290746
vt 0.503255324 0.975594036
vt 0.47092284 0.986516375
vt 0.0323324882 0.181290746
vt 0.47092284 0.986516375
vt 0 0.192213085
vt 0.9 0.517725016
vt 0.1 0.517725025
vt 0.1 0.47092284
vt 0.9 0.517725016
vt 0.1 0.47092284
vt 0.9 0.47092284
vt 0.81870929 0.967667512
vt 0.975594036 0.503255319
vt 1 0.517725025
vt 0.81870929 0.967667512
vt 1 0.517725025
vt 0.843115218 0.982137188
vt 0.503255324 0.975594036
vt 0.967667512 0.818709254
vt 0.982137188 0.843115218
vt 0.503255324 0.975594036
vt 0.982137188 0.843115218
vt 0.517725016 1
vt 0.807786915 0.9
vt 0.807786915 0.1
vt 0.843115218 0.1
vt 0.807786915 0.9
vt 0.843115218 0.1
vt 0.843115218 0.9
vt 0.024405964 0.496744681
vt 0.81870929 0.967667512
vt 0.807786915 1
vt 0.024405964 0.496744681
vt 0.807786915 1
vt 0.013483625 0.52907716
vt 0.967667512 0.818709254
vt 0.496744676 0.024405964
vt 0.52907716 0.013483625
vt 0.967667512 0.818709254
vt 0.52907716 0.013483625
vt 1 0.807786915
vt 0.18129071 0.0323324882
vt 0.975594036 0.503255319
vt 0.81870929 0.967667512
vt 0.18129071 0.0323324882
vt 0.81870929 0.967667512
vt 0.024405964 0.496744681
vt 0.482274975 0.1
vt 0.482274984 0.9
vt 0.017862812 0.9
vt 0.482274975 0.1
vt 0.017862812 0.9
vt 0.017862812 0.1
vt 0.807786915 0.1
vt 0.807786915 0.9
vt 0.013483625 0.9
vt 0.807786915 0.1
vt 0.013483625 0.9
vt 0.013483625 0.1
vt 0.503255324 0.975594036
vt 0.0323324882 0.181290746
vt 0.496744676 0.024405964
vt 0.503255324 0.975594036
vt 0.496744676 0.024405964
vt 0.967667512 0.818709254
vt 0.1 0.192213085
vt 0.9 0.192213085
vt 0.9 0.986516375
vt 0.1 0.192213085
vt 0.9 0.986516375
vt 0.1 0.986516375
vt 0.1 0.517725025
vt 0.9 0.517725016
vt 0.9 0.982137188
vt 0.1 0.517725025
vt 0.9 0.982137188
vt 0.1 0.982137188
vn 0.172253385 -0.451320082 -0.875579178
vn 0.659664333 -0.669449627 -0.341584861
vn -0.0458766446 -0.938730657 -0.341584653
vn 0.659664333 -0.669449508 0.341584921
vn 0.172253385 -0.451319724 0.875579357
vn -0.0458765663 -0.938730597 0.34158501
vn -0.451319993 -0.172253877 -0.875579178
vn -0.669449568 -0.659664512 -0.341584563
vn -0.938730597 0.0458762497 -0.341584802
vn -0.451319724 -0.17225337 0.875579357
vn -0.938730538 0.0458762273 0.341584921
vn -0.669449508 -0.659664392 0.341584951
vn 0.451319993 0.172253877 -0.875579178
vn 0.669449568 0.659664512 -0.341584563
vn 0.938730597 -0.0458762497 -0.341584802
vn 0.451319724 0.17225337 0.875579357
vn 0.938730538 -0.0458762273 0.341584921
vn 0.669449508 0.659664392 0.341584951
vn -0.1722534 0.451320082 -0.875579178
vn -0.659664333 0.669449627 -0.341584831
vn 0.045876652 0.938730657 -0.341584623
vn -0.17225343 0.451319844 0.875579298
vn 0.0458765328 0.938730597 0.341584891
vn -0.659664333 0.669449627 0.341584831
f 1/1/1 2/2/2 3/3/3
f 4/4/4 5/5/5 6/6/6
f 7/7/7 8/8/8 9/9/9
f 10/10/10 11/11/11 12/12/12
f 13/13/13 14/14/14 15/15/15
f 16/16/16 17/17/17 18/18/18
f 19/19/19 20/20/20 21/21/21
f 22/22/22 23/23/23 24/24/24
f 7/25/7 1/26/1 3/27/3
f 7/28/7 3/29/3 8/30/8
f 2/31/2 4/32/4 6/33/6
f 2/34/2 6/35/6 3/36/3
f 5/37/5 10/38/10 12/39/12
f 5/40/5 12/41/12 6/42/6
f 11/43/11 9/44/9 8/45/8
f 11/46/11 8/47/8 12/48/12
f 19/49/19 7/50/7 9/51/9
f 19/52/19 9/53/9 20/54/20
f 10/55/10 22/56/22 24/57/24
f 10/58/10 24/59/24 11/60/11
f 23/61/23 21/62/21 20/63/20
f 23/64/23 20/65/20 24/66/24
f 13/67/13 19/68/19 21/69/21
f 13/70/13 21/71/21 14/72/14
f 22/73/22 16/74/16 18/75/18
f 22/76/22 18/77/18 23/78/23
f 17/79/17 15/80/15 14/81/14
f 17/82/17 14/83/14 18/84/18
f 1/85/1 13/86/13 15/87/15
f 1/88/1 15/89/15 2/90/2
f 16/91/16 5/92/5 4/93/4
f 16/94/16 4/95/4 17/96/17
f 7/97/7 19/98/19 13/99/13
f 7/100/7 13/101/13 1/102/1
f 3/103/3 6/104/6 12/105/12
f 3/106/3 12/107/12 8/108/8
f 15/109/15 17/110/17 4/111/4
f 15/112/15 4/113/4 2/114/2
f 22/115/22 10/116/10 5/117/5
f 22/118/22 5/119/5 16/120/16
f 9/121/9 11/122/11 24/123/24
f 9/124/9 24/125/24 20/126/20
f 21/127/21 23/128/23 18/129/18
f 21/130/21 18/131/18 14/132/14
