o VIS_DYN_DEB_BRICK_01
v -0.0656149164 -0.0725615695 -0.0274999999
v -0.063372232 -0.0775835589 -0.0219999999
v -0.0706369057 -0.0748042539 -0.0219999999
v -0.063372232 -0.0775835589 0.0219999999
v -0.0656149164 -0.0725615695 0.0274999999
v -0.0706369057 -0.0748042539 0.0219999999
v -0.0978279933 -0.000427546445 -0.0274999999
v -0.102849983 -0.00267022802 -0.0219999999
v -0.100070678 0.00459444337 -0.0219999999
v -0.0978279933 -0.000427546445 0.0274999999
v -0.100070678 0.00459444337 0.0219999999
v -0.102849983 -0.00267022802 0.0219999999
v 0.0978279933 0.000427546445 -0.0274999999
v 0.102849983 0.00267022802 -0.0219999999
v 0.100070678 -0.00459444337 -0.0219999999
v 0.0978279933 0.000427546445 0.0274999999
v 0.100070678 -0.00459444337 0.0219999999
v 0.102849983 0.00267022802 0.0219999999
v 0.0656149164 0.0725615695 -0.0274999999
v 0.063372232 0.0775835589 -0.0219999999
v 0.0706369057 0.0748042539 -0.0219999999
v 0.0656149164 0.0725615695 0.0274999999
v 0.0706369057 0.0748042539 0.0219999999
v 0.063372232 0.0775835589 0.0219999999
vt 0.181016396 0
vt 0.191919092 0.1
vt 0.156602248 0.1
vt 0.191919092 0.9
vt 0.181016396 1
vt 0.156602248 0.9
vt 0 0.497244607
vt 0.1 0.482791277
vt 0.1 0.529609646
vt 1 0.497244607
vt 0.9 0.529609646
vt 0.9 0.482791277
vt 0.502755393 0
vt 0.517208723 0.1
vt 0.470390354 0.1
vt 0.502755393 1
vt 0.470390354 0.9
vt 0.517208723 0.9
vt 0 0.818983604
vt 0.1 0.808080908
vt 0.1 0.843397752
vt 1 0.818983604
vt 0.9 0.843397752
vt 0.9 0.808080908
vt 0.497244607 0.0244141477
vt 0.032365036 0.181016396
vt 0.0179116879 0.156602248
vt 0.497244607 0.0244141477
vt 0.0179116879 0.156602248
vt 0.482791277 0
vt 0.191919092 0.1
vt 0.191919092 0.9
vt 0.156602248 0.9
vt 0.191919092 0.1
vt 0.156602248 0.9
vt 0.156602248 0.1
vt 0.181016396 0.032365036
vt 0.0244141477 0.497244607
vt 0 0.482791277
vt 0.181016396 0.032365036
vt 0 0.482791277
vt 0.156602248 0.0179116879
vt 0.9 0.529609646
vt 0.1 0.529609646
vt 0.1 0.482791277
vt 0.9 0.529609646
vt 0.1 0.482791277
vt 0.9 0.482791277
vt 0.967634964 0.818983604
vt 0.497244607 0.0244141477
vt 0.529609646 0.0135114509
vt 0.967634964 0.818983604
vt 0.529609646 0.0135114509
vt 1 0.808080908
vt 0.0244141477 0.497244607
vt 0.818983604 0.967634964
vt 0.808080908 1
vt 0.0244141477 0.497244607
vt 0.808080908 1
vt 0.0135114509 0.529609646
vt 0.9 0.843397752
vt 0.1 0.843397752
vt 0.1 0.808080908
vt 0.9 0.843397752
vt 0.1 0.808080908
vt 0.9 0.808080908
vt 0.502755393 0.975585852
vt 0.967634964 0.818983604
vt 0.982088312 0.843397752
vt 0.502755393 0.975585852
vt 0.982088312 0.843397752
vt 0.517208723 1
vt 0.818983604 0.967634964
vt 0.975585852 0.502755393
vt 1 0.517208723
vt 0.818983604 0.967634964
vt 1 0.517208723
vt 0.843397752 0.982088312
vt 0.470390354 0.9
vt 0.470390354 0.1
vt 0.517208723 0.1
vt 0.470390354 0.9
vt 0.517208723 0.1
vt 0.517208723 0.9
vt 0.032365036 0.181016396
vt 0.502755393 0.975585852
vt 0.470390354 0.986488549
vt 0.032365036 0.181016396
vt 0.470390354 0.986488549
vt 0 0.191919092
vt 0.975585852 0.502755393
vt 0.181016396 0.032365036
vt 0.191919092 0
vt 0.975585852 0.502755393
vt 0.191919092 0
vt 0.986488549 0.470390354
vt 0.497244607 0.0244141477
vt 0.967634964 0.818983604
vt 0.502755393 0.975585852
vt 0.497244607 0.0244141477
vt 0.502755393 0.975585852
vt 0.032365036 0.181016396
vt 0.1 0.0179116879
vt 0.9 0.0179116879
vt 0.9 0.482791277
vt 0.1 0.0179116879
vt 0.9 0.482791277
vt 0.1 0.482791277
vt 0.986488549 0.1
vt 0.986488549 0.9
vt 0.191919092 0.9
vt 0.986488549 0.1
vt 0.191919092 0.9
vt 0.191919092 0.1
vt 0.818983604 0.967634964
vt 0.0244141477 0.497244607
vt 0.181016396 0.032365036
vt 0.818983604 0.967634964
vt 0.181016396 0.032365036
vt 0.975585852 0.502755393
vt 0.1 0.0135114509
vt 0.9 0.0135114509
vt 0.9 0.808080908
vt 0.1 0.0135114509
vt 0.9 0.808080908
vt 0.1 0.808080908
vt 0.982088312 0.1
vt 0.982088312 0.9
vt 0.517208723 0.9
vt 0.982088312 0.1
vt 0.517208723 0.9
vt 0.517208723 0.1
vn -0.172612652 -0.451182216 -0.875579476
vn 0.045129329 -0.938766718 -0.341585159
vn -0.660196841 -0.668924212 -0.341585129
vn 0.0451293178 -0.938766718 0.34158501
vn -0.172612682 -0.451182306 0.875579417
vn -0.6601969 -0.668924332 0.34158498
vn -0.451182216 0.172612891 -0.875579417
vn -0.938766718 -0.0451287441 -0.34158507
vn -0.668923974 0.660197318 -0.341584951
vn -0.451182216 0.172612891 0.875579417
vn -0.668923974 0.660197318 0.341584951
vn -0.938766718 -0.0451287441 0.34158507
vn 0.451182216 -0.172612891 -0.875579417
vn 0.938766718 0.0451287441 -0.34158507
vn 0.668923974 -0.660197318 -0.341584951
vn 0.451182216 -0.172612891 0.875579417
vn 0.668923974 -0.660197318 0.341584951
vn 0.938766718 0.0451287441 0.34158507
vn 0.172612652 0.451182216 -0.875579476
vn -0.045129329 0.938766718 -0.341585159
vn 0.6601969 0.668924212 -0.341585129
vn 0.172612652 0.451182216 0.875579476
vn 0.6601969 0.668924212 0.341585129
vn -0.045129329 0.938766718 0.341585159
f 1/1/1 2/2/2 3/3/3
f 4/4/4 5/5/5 6/6/6
f 7/7/7 8/8/8 9/9/9
f 10/10/10 11/11/11 12/12/12
f 13/13/13 14/14/14 15/15/15
f 16/16/16 17/17/17 18/18/18
f 19/19/19 20/20/20 21/21/21
f 22/22/22 23/23/23 24/24/24
f 7/25/7 1/26/1 3/27/3
f 7/28/7 3/29/3 8/30/8
f 2/31/2 4/32/4 6/33/6
f 2/34/2 6/35/6 3/36/3
f 5/37/5 10/38/10 12/39/12
f 5/40/5 12/41/12 6/42/6
f 11/43/11 9/44/9 8/45/8
f 11/46/11 8/47/8 12/48/12
f 19/49/19 7/50/7 9/51/9
f 19/52/19 9/53/9 20/54/20
f 10/55/10 22/56/22 24/57/24
f 10/58/10 24/59/24 11/60/11
f 23/61/23 21/62/21 20/63/20
f 23/64/23 20/65/20 24/66/24
f 13/67/13 19/68/19 21/69/21
f 13/70/13 21/71/21 14/72/14
f 22/73/22 16/74/16 18/75/18
f 22/76/22 18/77/18 23/78/23
f 17/79/17 15/80/15 14/81/14
f 17/82/17 14/83/14 18/84/18
f 1/85/1 13/86/13 15/87/15
f 1/88/1 15/89/15 2/90/2
f 16/91/16 5/92/5 4/93/4
f 16/94/16 4/95/4 17/96/17
f 7/97/7 19/98/19 13/99/13
f 7/100/7 13/101/13 1/102/1
f 3/103/3 6/104/6 12/105/12
f 3/106/3 12/107/12 8/108/8
f 15/109/15 17/110/17 4/111/4
f 15/112/15 4/113/4 2/114/2
f 22/115/22 10/116/10 5/117/5
f 22/118/22 5/119/5 16/120/16
f 9/121/9 11/122/11 24/123/24
f 9/124/9 24/125/24 20/126/20
f 21/127/21 23/128/23 18/129/18
f 21/130/21 18/131/18 14/132/14
