o VIS_DYN_DEB_CHUNK_01
v -0.0118701486 -0.0964567289 -0.0573645942
v -0.00737907272 -0.100475505 -0.0524473079
v -0.0151128024 -0.100583605 -0.0516240261
v 0.00314095989 -0.103829712 0.0459349938
v -0.000181220472 -0.100183628 0.0519490726
v -0.00459276559 -0.103937812 0.0467582755
v -0.10349834 -0.00656884443 -0.0445021763
v -0.106740989 -0.0106957164 -0.0387616083
v -0.106820524 -0.00292275776 -0.0384880975
v -0.0918094069 -0.0102957413 0.0648114905
v -0.0963004827 -0.00627696561 0.0598942041
v -0.0962209478 -0.0140499212 0.0596206933
v 0.0918094069 0.0102957413 -0.0648114905
v 0.0962209478 0.0140499221 -0.0596206933
v 0.0963004827 0.00627696374 -0.0598942041
v 0.10349834 0.00656884443 0.0445021763
v 0.106820524 0.00292275939 0.0384880975
v 0.106740989 0.0106957145 0.0387616083
v 0.000181220705 0.100183628 -0.0519490726
v -0.00314095989 0.103829712 -0.0459349938
v 0.00459276652 0.103937812 -0.0467582755
v 0.0118701486 0.0964567289 0.0573645942
v 0.0151128024 0.100583605 0.0516240261
v 0.00737907505 0.100475505 0.0524473079
vt 0.44443882 0.0574504322
vt 0.465460417 0.0953857297
vt 0.429260774 0.101737086
vt 0.514702043 0.854373842
vt 0.499151753 0.900770544
vt 0.47850242 0.860725198
vt 0.156679888 0.468400122
vt 0.200966541 0.44854752
vt 0.20307659 0.485939873
vt 1 0.450471628
vt 0.962064703 0.469804225
vt 0.959954654 0.432411887
vt 0.549528372 0
vt 0.567588117 0.0400453462
vt 0.530195766 0.0379352974
vt 0.531599878 0.843320112
vt 0.514060135 0.79692341
vt 0.551452471 0.799033459
vt 0.0992294557 0.500848249
vt 0.145626158 0.485297957
vt 0.139274802 0.521497585
vt 0.942549568 0.55556118
vt 0.898262914 0.570739226
vt 0.90461427 0.534539594
vt 0.468400122 0.015550308
vt 0.0359882661 0.44443882
vt 0.0161356421 0.429260774
vt 0.468400122 0.015550308
vt 0.0161356421 0.429260774
vt 0.44854752 0.000372283083
vt 0.465460417 0.0953857297
vt 0.514702043 0.854373842
vt 0.47850242 0.860725198
vt 0.465460417 0.0953857297
vt 0.47850242 0.860725198
vt 0.429260774 0.101737086
vt 0.499151753 0.0180597589
vt 0.0702632619 0.450471628
vt 0.0496139485 0.432411887
vt 0.499151753 0.0180597589
vt 0.0496139485 0.432411887
vt 0.47850242 0
vt 0.962064703 0.469804225
vt 0.20307659 0.485939873
vt 0.200966541 0.44854752
vt 0.962064703 0.469804225
vt 0.200966541 0.44854752
vt 0.959954654 0.432411887
vt 0.981940241 0.500848249
vt 0.468400122 0.015550308
vt 0.485939873 0
vt 0.981940241 0.500848249
vt 0.485939873 0
vt 0.999479975 0.485297957
vt 0.0702632619 0.450471628
vt 0.55556118 0.964011734
vt 0.534539594 0.983344333
vt 0.0702632619 0.450471628
vt 0.534539594 0.983344333
vt 0.0492416655 0.469804225
vt 0.898262914 0.570739226
vt 0.139274802 0.521497585
vt 0.145626158 0.485297957
vt 0.898262914 0.570739226
vt 0.145626158 0.485297957
vt 0.90461427 0.534539594
vt 0.549528372 0.929736738
vt 0.981940241 0.500848249
vt 1 0.521497585
vt 0.549528372 0.929736738
vt 1 0.521497585
vt 0.567588117 0.950386051
vt 0.55556118 0.964011734
vt 0.984449692 0.531599878
vt 0.999627717 0.551452471
vt 0.55556118 0.964011734
vt 0.999627717 0.551452471
vt 0.570739226 0.983864358
vt 0.514060135 0.79692341
vt 0.530195766 0.0379352974
vt 0.567588117 0.0400453462
vt 0.514060135 0.79692341
vt 0.567588117 0.0400453462
vt 0.551452471 0.799033459
vt 0.0359882661 0.44443882
vt 0.549528372 0.929736738
vt 0.530195766 0.950758335
vt 0.0359882661 0.44443882
vt 0.530195766 0.950758335
vt 0.0166556669 0.465460417
vt 0.984449692 0.531599878
vt 0.499151753 0.0180597589
vt 0.514702043 0.000520024771
vt 0.984449692 0.531599878
vt 0.514702043 0.000520024771
vt 1 0.514060135
vt 0.468400122 0.015550308
vt 0.981940241 0.500848249
vt 0.549528372 0.929736738
vt 0.468400122 0.015550308
vt 0.549528372 0.929736738
vt 0.0359882661 0.44443882
vt 0.429260774 0.101737086
vt 0.47850242 0.860725198
vt 0.0496139485 0.959954654
vt 0.429260774 0.101737086
vt 0.0496139485 0.959954654
vt 0.000372283083 0.200966541
vt 0.530195766 0.0379352974
vt 0.514060135 0.79692341
vt 0.000520024771 0.854373842
vt 0.530195766 0.0379352974
vt 0.000520024771 0.854373842
vt 0.0166556669 0.0953857297
vt 0.55556118 0.964011734
vt 0.0702632619 0.450471628
vt 0.499151753 0.0180597589
vt 0.55556118 0.964011734
vt 0.499151753 0.0180597589
vt 0.984449692 0.531599878
vt 0.20307659 0.485939873
vt 0.962064703 0.469804225
vt 0.90461427 0.983344333
vt 0.20307659 0.485939873
vt 0.90461427 0.983344333
vt 0.145626158 0.999479975
vt 0.139274802 0.521497585
vt 0.898262914 0.570739226
vt 0.799033459 0.999627717
vt 0.139274802 0.521497585
vt 0.799033459 0.999627717
vt 0.0400453462 0.950386051
vn -0.0881023854 -0.453084409 -0.887103498
vn 0.347935647 -0.843266964 -0.409684747
vn -0.402930915 -0.853762269 -0.329752326
vn 0.420531303 -0.866413593 0.269222736
vn 0.0979809612 -0.512416065 0.853129268
vn -0.330335259 -0.876908958 0.349155039
vn -0.573355198 0.0229516532 -0.818985403
vn -0.888183951 -0.37772572 -0.261634141
vn -0.895905554 0.376949847 -0.235078767
vn -0.38727203 -0.0363788754 0.921247423
vn -0.823309779 0.353803813 0.443828672
vn -0.815588593 -0.400871754 0.417273372
vn 0.387271971 0.0363788977 -0.921247542
vn 0.815588534 0.400871813 -0.417273402
vn 0.82330972 -0.353803903 -0.443828762
vn 0.573355198 -0.0229515918 0.818985343
vn 0.895905554 -0.376949847 0.235078767
vn 0.888184071 0.377725661 0.261634111
vn -0.097980924 0.512415826 -0.853129506
vn -0.420531332 0.866413534 -0.269223034
vn 0.330335259 0.876908898 -0.349155366
vn 0.0881023556 0.453084409 0.887103498
vn 0.402930915 0.853762269 0.329752356
vn -0.347935617 0.843267024 0.409684747
f 1/1/1 2/2/2 3/3/3
f 4/4/4 5/5/5 6/6/6
f 7/7/7 8/8/8 9/9/9
f 10/10/10 11/11/11 12/12/12
f 13/13/13 14/14/14 15/15/15
f 16/16/16 17/17/17 18/18/18
f 19/19/19 20/20/20 21/21/21
f 22/22/22 23/23/23 24/24/24
f 7/25/7 1/26/1 3/27/3
f 7/28/7 3/29/3 8/30/8
f 2/31/2 4/32/4 6/33/6
f 2/34/2 6/35/6 3/36/3
f 5/37/5 10/38/10 12/39/12
f 5/40/5 12/41/12 6/42/6
f 11/43/11 9/44/9 8/45/8
f 11/46/11 8/47/8 12/48/12
f 19/49/19 7/50/7 9/51/9
f 19/52/19 9/53/9 20/54/20
f 10/55/10 22/56/22 24/57/24
f 10/58/10 24/59/24 11/60/11
f 23/61/23 21/62/21 20/63/20
f 23/64/23 20/65/20 24/66/24
f 13/67/13 19/68/19 21/69/21
f 13/70/13 21/71/21 14/72/14
f 22/73/22 16/74/16 18/75/18
f 22/76/22 18/77/18 23/78/23
f 17/79/17 15/80/15 14/81/14
f 17/82/17 14/83/14 18/84/18
f 1/85/1 13/86/13 15/87/15
f 1/88/1 15/89/15 2/90/2
f 16/91/16 5/92/5 4/93/4
f 16/94/16 4/95/4 17/96/17
f 7/97/7 19/98/19 13/99/13
f 7/100/7 13/101/13 1/102/1
f 3/103/3 6/104/6 12/105/12
f 3/106/3 12/107/12 8/108/8
f 15/109/15 17/110/17 4/111/4
f 15/112/15 4/113/4 2/114/2
f 22/115/22 10/116/10 5/117/5
f 22/118/22 5/119/5 16/120/16
f 9/121/9 11/122/11 24/123/24
f 9/124/9 24/125/24 20/126/20
f 21/127/21 23/128/23 18/129/18
f 21/130/21 18/131/18 14/132/14
